<?xml version="1.0" encoding="UTF-8"?>
<svg width="92px" height="86px" viewBox="0 0 92 86" version="1.1" xmlns="http://www.w3.org/2000/svg" xmlns:xlink="http://www.w3.org/1999/xlink">
    <title>Group 20</title>
    <g id="Modules" stroke="none" stroke-width="1" fill="none" fill-rule="evenodd">
        <g id="Business-Page" transform="translate(-457.000000, -5768.000000)">
            <g id="Group-20" transform="translate(457.567533, 5777.604712)">
                <polygon id="Fill-1" fill="#F0F0F7" points="25.22213 57.9575009 55.4324675 74.3952884 89.4324675 55.8954964 89.4324675 18.8950803 55.4324675 0.395288373 21.4324675 18.8950803 21.4324675 27.9477628 21.4324675 55.7465461"></polygon>
                <polygon id="Stroke-2" stroke="#9D9590" stroke-width="3" points="25.22213 57.9575009 55.4324675 74.3952884 89.4324675 55.8954964 89.4324675 18.8950803 55.4324675 0.395288373 21.4324675 18.8950803 21.4324675 27.9477628 21.4324675 55.7465461"></polygon>
                <polyline id="Fill-4" fill="#F0F0F7" points="54.4324675 74.3952884 54.4324675 37.0616752 20.4324675 18.3952884"></polyline>
                <polyline id="Stroke-5" stroke="#9D9590" stroke-width="3" points="54.4324675 74.3952884 54.4324675 37.0616752 20.4324675 18.3952884"></polyline>
                <line x1="55.4324675" y1="36.3952884" x2="89.4324675" y2="18.3952884" id="Fill-7" fill="#F0F0F7"></line>
                <line x1="55.4324675" y1="36.3952884" x2="89.4324675" y2="18.3952884" id="Stroke-8" stroke="#9D9590" stroke-width="3"></line>
                <g id="Group-12" transform="translate(38.432467, 9.395288)">
                    <line x1="34" y1="18" x2="-5.90974657e-15" y2="0" id="Fill-10" fill="#F0F0F7"></line>
                    <line x1="34" y1="18" x2="-5.90974657e-15" y2="0" id="Stroke-11" stroke="#9D9590" stroke-width="3"></line>
                </g>
                <path d="M5.43246748,31.8952884 L31.4324675,31.8952884 L5.43246748,31.8952884 Z" id="Fill-13" fill="#F0F0F7"></path>
                <line x1="5.43246748" y1="31.8952884" x2="31.4324675" y2="31.8952884" id="Stroke-14" stroke="#9D9590" stroke-width="3"></line>
                <path d="M0.432467478,39.8952884 L28.4324675,39.8952884 L0.432467478,39.8952884 Z" id="Fill-15" fill="#F0F0F7"></path>
                <line x1="0.432467478" y1="39.8952884" x2="28.4324675" y2="39.8952884" id="Stroke-16" stroke="#9D9590" stroke-width="3"></line>
                <path d="M11.4324675,48.8952884 L33.4324675,48.8952884 L11.4324675,48.8952884 Z" id="Fill-18" fill="#F0F0F7"></path>
                <line x1="11.4324675" y1="48.8952884" x2="33.4324675" y2="48.8952884" id="Stroke-19" stroke="#9D9590" stroke-width="3"></line>
            </g>
        </g>
    </g>
</svg>