<?xml version="1.0" encoding="UTF-8"?>
<svg width="97px" height="71px" viewBox="0 0 97 71" version="1.1" xmlns="http://www.w3.org/2000/svg" xmlns:xlink="http://www.w3.org/1999/xlink">
    <title>Group 16</title>
    <defs>
        <polygon id="path-1" points="0 0 96 0 96 39 0 39"></polygon>
    </defs>
    <g id="Modules" stroke="none" stroke-width="1" fill="none" fill-rule="evenodd">
        <g id="Homepage" transform="translate(-130.000000, -5998.000000)">
            <g id="Group-16" transform="translate(130.000000, 6024.000000)">
                <path d="M19.1118808,39.8297129 C18.2359821,40.8591407 17.0374891,41.4622501 15.7351267,41.5299357 C15.6212698,41.5359971 15.507413,41.5380176 15.3945549,41.5349869 C14.0921925,41.5046799 12.8777195,40.9359185 11.9768523,39.9317465 C11.075985,38.9275745 10.595589,37.6092199 10.6235539,36.220149 C10.6515187,34.8310781 11.1858469,33.5369691 12.1266639,32.575227 C13.0385173,31.6437918 14.2360116,31.1305932 15.4964268,31.1305932 L15.6062886,31.1316034 C15.6342535,31.1326137 15.6622183,31.1366546 15.6901832,31.1376648 C18.2010261,31.2427291 20.2504491,33.3955365 20.3722959,36.081747 C20.4352168,37.4698077 19.9877794,38.8012953 19.1118808,39.8297129 M15.6622183,28.3352774 C13.6657287,28.2888067 11.759126,29.0767887 10.3129444,30.5547602 C8.86576411,32.0327316 8.04479638,34.0228914 8.00185038,36.159535 C7.95790564,38.2931479 8.69797508,40.3186659 10.0852308,41.8633127 C11.4724864,43.4089698 13.3381406,44.2848421 15.3386252,44.3313129 C15.3915586,44.3323231 15.4444921,44.3333333 15.4984243,44.3333333 C15.6202711,44.3333333 15.7421179,44.3303026 15.8629659,44.3242412 C17.8644493,44.2201872 19.708131,43.2917827 21.0534395,41.7097572 C22.3997466,40.1277317 23.0878814,38.0809989 22.9910032,35.9463758 C22.8022405,31.7680505 19.583288,28.4251882 15.6622183,28.3352774" id="Fill-1" fill="#9D9590"></path>
                <path d="M84.1100986,36.6168277 C84.1028141,36.7411408 84.0861638,36.8634325 84.070554,36.9857242 C84.0643102,37.0342366 84.0622289,37.0837597 84.0549443,37.1322721 C83.6751081,39.504327 81.6229516,41.390247 79.0650405,41.5327522 C78.9994797,41.5307308 78.9339189,41.5216348 78.8683581,41.5175921 C78.7632527,41.5105173 78.6571067,41.505464 78.553042,41.4923252 C78.4864406,41.4832291 78.4219204,41.4690797 78.355319,41.4579622 C78.2543762,41.4407807 78.1523928,41.4266313 78.0535313,41.4054071 C77.9869298,41.390247 77.9224097,41.3690228 77.8558083,41.3518413 C77.7611094,41.3265744 77.6643292,41.3033289 77.5706709,41.2740193 C77.5040695,41.2517845 77.44059,41.2244962 77.3750292,41.20024 C77.2855335,41.1678984 77.1939566,41.1375782 77.1065422,41.1001832 C77.0399408,41.0718843 76.9775019,41.0375213 76.9119412,41.0061904 C76.8286894,40.9667741 76.7443969,40.9303897 76.6642671,40.8869307 C76.599747,40.8525677 76.5393894,40.8121407 76.4759099,40.7747458 C76.398902,40.7292654 76.3198128,40.6858063 76.2448862,40.6362832 C76.18661,40.5978776 76.1324963,40.5544185 76.0763014,40.5139915 C76.0013748,40.4594151 75.9243669,40.4078706 75.8515215,40.3502621 C75.7963672,40.3057924 75.7453755,40.2562693 75.6912619,40.2097783 C75.6225791,40.1511591 75.5528558,40.0945613 75.487295,40.0318994 C75.4363033,39.9823764 75.3894741,39.9288106 75.3405637,39.8772661 C75.2781249,39.8125829 75.2125641,39.749921 75.1542878,39.6822058 C75.10954,39.631672 75.0710361,39.5770956 75.0283695,39.5255511 C74.9700933,39.4527825 74.9086951,39.3810246 74.8535408,39.3052239 C74.8171181,39.2546902 74.7858987,39.2011244 74.7515573,39.1495799 C74.696403,39.0677152 74.6391674,38.9868612 74.5892164,38.9019645 C74.5590376,38.8504201 74.534062,38.7958436 74.5049239,38.7432885 C74.4570541,38.6543491 74.4060624,38.5664203 74.3633959,38.4754595 C74.3384204,38.4218938 74.3186481,38.3652959 74.2957538,38.3117301 C74.2551686,38.2167267 74.212502,38.1237446 74.17712,38.0267197 C74.159429,37.9751753 74.1459006,37.9216095 74.1292502,37.8690544 C74.0959495,37.7669762 74.0616082,37.664898 74.0345513,37.5597878 C74.0262262,37.5264355 74.0220636,37.4920725 74.014779,37.4587202 C73.9481776,37.1726991 73.9034298,36.8785926 73.8878201,36.5774114 C73.8794949,36.4005432 73.8805355,36.2236751 73.8899014,36.0498389 C73.8951046,35.9507927 73.9096737,35.8537679 73.9211208,35.7557324 C73.929446,35.6819531 73.9336085,35.6071632 73.9450557,35.5343945 C74.3248919,33.161329 76.3770484,31.275409 78.9349595,31.1339145 C79.0005203,31.1359358 79.0660811,31.1450319 79.1316419,31.1490746 C79.2367473,31.1561493 79.3428933,31.1612027 79.446958,31.1743415 C79.5135594,31.1824269 79.5770389,31.197587 79.6436404,31.2087044 C79.7445832,31.2248752 79.8465666,31.2390247 79.9464687,31.2612596 C80.0120295,31.2764197 80.075509,31.2976439 80.1410698,31.3148253 C80.23785,31.3400922 80.3346302,31.3623271 80.4293291,31.3926473 C80.4948899,31.4138715 80.5573287,31.4411597 80.6218488,31.465416 C80.7134258,31.4987682 80.8050028,31.5290885 80.8934578,31.5664835 C80.9579779,31.5937717 81.0193761,31.627124 81.0828556,31.6574443 C81.167148,31.6978713 81.2535218,31.7352662 81.3357329,31.779736 C81.4023343,31.8151096 81.4647732,31.8565473 81.5292933,31.8949529 C81.6042199,31.9404333 81.6822685,31.981871 81.7551138,32.0303834 C81.8154713,32.0708104 81.8727069,32.1162908 81.9309832,32.1587392 C82.0038285,32.2102836 82.0787551,32.2608174 82.1484785,32.3164045 C82.2036328,32.3608742 82.2556651,32.4103973 82.3087381,32.4568884 C82.3774209,32.5155075 82.4471442,32.573116 82.512705,32.6347672 C82.5636967,32.6842903 82.6105259,32.7378561 82.6604769,32.7894005 C82.7229158,32.8540838 82.7874359,32.9167456 82.8457122,32.9844609 C82.89046,33.0349946 82.9289639,33.0895711 82.9716305,33.1411155 C83.0299067,33.2138842 83.0913049,33.2856421 83.1464592,33.3614427 C83.1828819,33.4119765 83.2141013,33.4655423 83.2484427,33.5170867 C83.303597,33.5989514 83.3608326,33.6798054 83.4107836,33.7647022 C83.4388811,33.8111932 83.4607347,33.8607163 83.4867509,33.9092287 C83.5387833,34.0022109 83.5918563,34.095193 83.6366041,34.1922178 C83.6522138,34.2245594 83.6647016,34.259933 83.6792707,34.2932853 C83.7302624,34.4074916 83.7802134,34.5216979 83.82288,34.6399469 C83.8332865,34.6702672 83.840571,34.7015981 83.8509775,34.7309077 C83.8926034,34.8552208 83.9331886,34.9795338 83.9654487,35.1068789 C83.9737738,35.1402312 83.9779364,35.1756048 83.985221,35.2089571 C84.0518224,35.4949782 84.0965702,35.788074 84.1121799,36.0892553 C84.1205051,36.2661234 84.1194645,36.4429916 84.1100986,36.6168277 M78.9526505,28.334344 L78.8954149,28.3333333 L78.8496265,28.3353547 C74.3113635,28.5445645 70.7939756,32.3022551 71.0093896,36.7108205 C71.2143971,40.88592 74.7453135,44.2332765 79.0473495,44.3323227 L79.1045851,44.3333333 L79.1503735,44.331312 C83.6886365,44.1210915 87.2060244,40.3644116 86.9906104,35.9558461 C86.7856029,31.7807466 83.2557272,28.4333902 78.9526505,28.334344" id="Fill-3" fill="#9D9590"></path>
                <path d="M62.7523188,17.3395548 C62.6258853,17.5707867 62.4647846,17.7833541 62.2730951,17.9720724 C61.8315974,18.4055026 61.2606074,18.6688788 60.6529109,18.7227983 L60.6529109,18.7321305 L60.3174542,18.7362782 L60.3174542,18.7321305 L44.7518583,18.7321305 L44.7589957,17.3229642 L43.6108979,14.3864233 C43.5303475,14.2526614 43.3345795,14.1883727 43.1704199,14.2640675 L43.0072799,14.3252454 C42.9022585,14.3573897 42.8533165,14.4247892 42.832924,14.463155 C42.8145708,14.4973732 42.7860213,14.5678833 42.8053941,14.6549841 L44.3807148,18.7321305 L36.4531301,18.7321305 C34.987929,18.7321305 33.7949677,17.5199779 33.7949677,16.0288953 L33.7949677,8.49052952 C33.7949677,7.00048389 34.987929,5.78729435 36.4531301,5.78729435 L53.1250192,5.78729435 C53.3044732,5.78729435 53.4829076,5.8059588 53.6572635,5.84225079 C53.6664401,5.84432462 53.6766363,5.84847228 53.6868326,5.85054611 C53.7633045,5.86713673 53.8387567,5.88580119 53.9131893,5.90965021 C53.9458173,5.92001936 53.9774257,5.93349924 54.0090341,5.9449053 C54.061035,5.96356975 54.1120162,5.98016038 54.1619779,6.00193557 C54.1782919,6.00919397 54.1946059,6.0185262 54.2109199,6.0257846 C54.2751562,6.05481819 54.338373,6.0848887 54.3995505,6.11806996 C54.4219822,6.13154984 54.4433944,6.14710355 54.4658261,6.15954652 C54.5198662,6.19169086 54.5728867,6.22279829 54.6248876,6.25909028 C54.6575156,6.28190239 54.6881044,6.30886216 54.7207324,6.33271118 C54.7584585,6.3627817 54.7982239,6.39077838 54.8349304,6.4218858 C54.8746958,6.45506705 54.9103826,6.49239596 54.9481088,6.52868796 C54.974619,6.55461081 55.0031685,6.57845984 55.0296788,6.60645652 L55.0296788,6.60645652 L62.3291744,14.1240841 C62.5157658,14.3221347 62.6707488,14.5419605 62.7910646,14.7794138 C62.9898915,15.1734412 63.091854,15.6130928 63.0859962,16.0672612 C63.0785988,16.5203926 62.9623616,16.9548597 62.7523188,17.3395548 L62.7523188,17.3395548 Z M32.9660125,16.3804092 C32.8100099,17.8393474 31.5895187,18.979953 30.1181998,18.979953 L13.9805942,18.979953 C12.7947703,18.979953 11.8291854,17.9979953 11.8291854,16.7920642 L11.8291854,15.876469 C11.8291854,10.3237937 16.2706721,5.80699571 21.7307642,5.80699571 L30.1253371,5.8059588 C31.6710887,5.8059588 32.9527574,7.09173234 32.9823265,8.67302641 L32.9823265,16.0848887 C32.9813069,16.1844325 32.9762087,16.2839762 32.9660125,16.3804092 L32.9660125,16.3804092 Z M93.9120601,25.2097332 L89.1748821,20.4440758 L80.3367723,17.833126 L73.5674816,17.833126 L57.237167,2.33333333 L17.2658261,2.33333333 L11.038976,6.76199364 L4.20952746,19.6269874 L2,26.0040094 L2,35.0687128 L4.4103936,37.3333333 L7.09200746,31.9932255 L11.8291854,27.2877091 L16.8640938,26.0040094 L22.4057559,28.605627 L25.3004714,37.3333333 L67.883072,37.3333333 L69.8917334,30.5083644 L74.6584804,25.2097332 L78.5819976,26.0040094 L86.4198553,28.605627 L88.5722837,34.003802 L88.5722837,37.3333333 L92.1878741,37.3333333 L95,35.0687128 L93.9120601,25.2097332 Z" id="Fill-5" fill="#F0F0F7"></path>
                <path d="M30.0636267,15.4601338 C30.0636267,15.4672963 30.0583245,15.4734357 30.0551432,15.479575 C30.0530223,15.4826446 30.0530223,15.4867375 30.0509014,15.4887839 C30.0424178,15.4959465 30.0328738,15.5010626 30.0212089,15.5010626 L13.9353128,15.5010626 L13.9353128,15.2708383 C13.9353128,11.3539551 17.2386002,8.16765053 21.2979852,8.16765053 L30.0116649,8.16765053 C30.0402969,8.16765053 30.0615058,8.18811492 30.0636267,8.18913813 L30.0636267,15.4601338 Z M30.028632,5.33333333 L21.2979852,5.33435655 C15.6193001,5.33435655 11,9.79252263 11,15.2708383 L11,16.1743408 C11,17.365368 12.0031813,18.3333333 13.2375398,18.3333333 L30.0212089,18.3333333 C31.5514316,18.3333333 32.8207847,17.2077922 32.9830329,15.7681228 C32.9936373,15.6729634 32.9989396,15.5747344 33,15.4765053 L33,8.16253444 C32.9692471,6.60314837 31.6362672,5.33333333 30.028632,5.33333333 L30.028632,5.33333333 Z" id="Fill-7" fill="#9D9590"></path>
                <path d="M47.2863758,15.4466421 L46.2889638,12.8316517 L46.2405066,12.7192238 C45.5045619,11.2118567 43.7449575,10.5331251 42.2448014,11.1681347 C41.4947234,11.4169336 40.8748742,11.9468023 40.4963018,12.6588458 C40.1177295,13.3719304 40.0198054,14.1974429 40.2257488,14.9990124 L40.3842444,15.4414371 L36.7953784,15.4310271 L36.8014355,8.21586056 L53.0749997,8.22210656 L59.9569406,15.4466421 L47.2863758,15.4466421 Z M62.2515939,13.7029682 L55.024395,6.15572283 L55.024395,6.15468183 C54.9981473,6.12761584 54.9698806,6.10367286 54.9426234,6.07764788 C54.9062804,6.0412129 54.8699375,6.00373692 54.8315755,5.97042494 C54.7952325,5.93919496 54.755861,5.91108798 54.717499,5.880899 C54.6862037,5.85695601 54.6559179,5.82989003 54.6226035,5.80698804 C54.5721272,5.77055306 54.5186223,5.73932308 54.466127,5.7070521 C54.4439174,5.69456011 54.4227173,5.67894512 54.4005077,5.66541213 C54.3399362,5.63210015 54.276336,5.60191117 54.2137454,5.57276319 C54.1965834,5.56547619 54.1814405,5.5561072 54.1652881,5.5488202 C54.1158213,5.52695921 54.0643355,5.51030322 54.0138592,5.49156524 C53.9825638,5.48011424 53.9512685,5.46554025 53.9189637,5.45617126 C53.8452683,5.43222827 53.7695538,5.41349028 53.6948488,5.39683429 C53.6847536,5.3937113 53.6746583,5.3905883 53.6645631,5.3885063 C53.4929436,5.35207132 53.3162765,5.33333333 53.1375903,5.33333333 L36.6318351,5.33333333 C35.1801363,5.33333333 34,6.55130258 34,8.04721866 L34,15.615284 C34,17.1122411 35.1801363,18.3291693 36.6318351,18.3291693 L44.4809022,18.3291693 L42.921184,14.2359599 C42.902003,14.1485159 42.9302698,14.077728 42.9484412,14.043375 C42.9686318,14.004858 43.0160795,13.937193 43.1210702,13.9049221 L43.2825945,13.8435031 C43.4451282,13.7675101 43.6379477,13.8320521 43.7187098,13.966341 L44.8554364,16.9144512 L44.8483698,18.3291693 L60.2597985,18.3291693 L60.2597985,18.3333333 L60.5909231,18.3291693 L60.5909231,18.3198003 C61.1936103,18.2656684 61.7579355,18.0012545 62.1960699,17.5661168 C62.3858609,17.3766549 62.545366,17.1622091 62.6705473,16.9311072 C62.8785097,16.5448964 62.9925862,16.1087177 62.9996529,15.653801 C63.0067196,15.1978433 62.9057669,14.7564595 62.7078998,14.3608798 C62.5897852,14.1224909 62.4363372,13.9017991 62.2515939,13.7029682 L62.2515939,13.7029682 Z" id="Fill-9" fill="#9D9590"></path>
                <g id="Group-13" transform="translate(0.000000, 0.333333)">
                    <mask id="mask-2" fill="white">
                        <use xlink:href="#path-1"></use>
                    </mask>
                    <g id="Clip-12"></g>
                    <path d="M93.194229,31.460582 C93.194229,33.2915237 93.1172058,35.0596544 92.5557476,35.6061104 C92.0540836,36.0928959 90.663613,36.127442 89.4565791,36.0928959 C89.3846233,31.6060943 87.6171446,28.1797523 84.3396067,26.178174 C82.2194431,24.8570485 79.7729445,24.146237 77.2605709,24.1232063 C76.7112742,24.138909 76.1660313,24.1985795 75.6309231,24.2990772 C75.2741843,24.3650287 74.9214993,24.4498236 74.5738817,24.552415 C74.4005796,24.6037107 74.2282909,24.6591938 74.0570158,24.7199111 C72.3493314,25.3187096 70.7956933,26.3477638 69.572444,27.7254191 C68.5042545,28.9282505 67.260736,30.8879548 66.7702201,33.8034337 C66.6567123,34.4765586 66.5827295,35.1999324 66.5614468,35.9766955 L33.941128,35.9766955 L33.941128,20.3869965 L31.1348502,20.3869965 L31.1348502,35.9766955 L26.1090894,35.9766955 C25.9641643,32.8863926 24.9729979,30.1331755 23.23795,28.0049283 C21.2181192,25.5280798 18.3155625,24.0813322 15.0664016,23.9316326 C8.89644161,23.6479361 4.45038144,28.0572708 3.3963804,35.4658324 C3.35280151,35.4229115 3.31124954,35.3789438 3.2717245,35.3318355 C2.94944341,34.9518288 2.7903298,34.4660901 2.8227606,33.962555 L2.82681445,33.885088 L2.82478752,33.8254175 C2.63628349,26.9664525 3.86764048,21.2506482 6.58980087,16.3524343 C7.21814764,15.2166014 7.89615408,14.0713469 8.55186435,12.9627321 L8.5721336,12.9292329 C9.61295963,11.1705239 10.6892568,9.35214443 11.6256962,7.48456298 C13.0110995,4.75961089 15.2001786,3.39765828 18.5172415,3.19561611 C21.6447869,2.9988082 24.9993479,2.9098259 29.394735,2.9098259 C31.8604894,2.9098259 34.3252303,2.91924756 36.7919981,2.92866921 L36.9642867,2.92971606 C41.8957955,2.94855937 46.995539,2.96844953 52.0628517,2.90877905 C54.7019081,2.78315698 57.3044799,3.82372647 59.2016818,5.76144691 C62.6454275,9.15428967 66.5117871,12.746034 71.0257493,16.747097 L71.1139205,16.8182828 C72.2935909,17.6965905 73.7195327,18.2482807 75.120138,18.3686686 C76.4396662,18.5508206 77.7632483,18.6439903 79.0432515,18.7340194 C80.4671663,18.8345171 81.8221658,18.9371084 83.1599363,19.143338 C83.3910058,19.1789309 83.6230887,19.2103364 83.8531447,19.2532573 C89.6765005,20.3252323 93.1688924,24.7272391 93.194229,31.0271859 L93.194229,31.460582 Z M84.346701,16.4005895 C82.6380031,16.0813 80.9080226,15.9598654 79.2246613,15.8415712 C77.9892504,15.7546826 76.7122876,15.6646535 75.4241767,15.4877357 C74.4786162,15.4050345 73.5695403,15.0627144 72.806403,14.5068367 C68.3532486,10.5570695 64.541616,7.01662077 61.1576645,3.68240164 C58.724341,1.19613148 55.3748473,-0.14174357 51.9858285,0.0110966163 C47.0411448,0.0686733987 42.0072763,0.0498300881 37.1386023,0.0309867775 L36.9348963,0.0309867775 C34.4215092,0.0205182716 31.9081221,0.0110966163 29.394735,0.0110966163 C24.9334729,0.0110966163 21.5272253,0.101125767 18.3490067,0.30212108 C14.0752352,0.562786877 10.9760667,2.52772544 9.1376457,6.14459422 C8.24579866,7.92319338 7.19686493,9.69655828 6.17833507,11.4165338 C5.50640941,12.550273 4.81320103,13.7227456 4.15546384,14.9119679 C1.17588397,20.2718429 -0.177088529,26.4671047 0.018509742,33.8369329 C-0.0453383982,35.0889662 0.360046619,36.2980786 1.15966856,37.2402442 C1.97449245,38.2033467 3.10348972,38.7801614 4.33687363,38.8649563 C4.42099103,38.8712374 4.50510842,38.8743779 4.58922581,38.8754248 L5.92395598,38.8942681 L6.00807337,37.5176596 C6.42460647,30.6880063 9.85517718,26.5937737 14.9407322,26.8282682 C17.3983789,26.9402812 19.5834041,28.0216779 21.0924498,29.8725097 C22.6481148,31.7798715 23.4345618,34.4399188 23.3068655,37.360632 L23.2420039,38.8754248 L69.4721112,38.8754248 L69.3859669,37.3428355 C69.2096244,34.1918152 69.9889771,31.5432832 71.6409211,29.6851234 C73.0871321,28.0551771 75.1475015,27.0847466 77.2869209,27.0219355 C79.2621594,27.039732 81.2029402,27.6081719 82.9015034,28.6665378 C85.6226503,30.3289366 86.8742765,33.2611651 86.6209109,37.3826158 L86.5317262,38.8325039 L87.9353718,38.9204394 C88.781613,38.9748756 89.4484714,39 90.0332393,39 C92.2537357,38.9989531 93.5408331,38.6273212 94.4772725,37.717608 C95.7572757,36.4739495 96.0005067,34.5592598 96.0005067,31.460582 L96.0005067,31.0219517 C95.9690894,23.319225 91.5037734,17.7164806 84.346701,16.4005895 L84.346701,16.4005895 Z" id="Fill-11" fill="#9D9590" mask="url(#mask-2)"></path>
                </g>
                <polygon id="Fill-14" fill="#9D9590" points="38 24.0262661 45.5950299 25.3333333 46 22.6404006 38.4049701 21.3333333"></polygon>
            </g>
        </g>
    </g>
</svg>