<?xml version="1.0" encoding="UTF-8"?>
<svg width="99px" height="71px" viewBox="0 0 99 71" version="1.1" xmlns="http://www.w3.org/2000/svg" xmlns:xlink="http://www.w3.org/1999/xlink">
    <title>Group 8</title>
    <defs>
        <polygon id="path-1" points="0 0 98 0 98 70 0 70"></polygon>
    </defs>
    <g id="Modules" stroke="none" stroke-width="1" fill="none" fill-rule="evenodd">
        <g id="Homepage" transform="translate(-447.000000, -5732.000000)">
            <g id="Group-8" transform="translate(448.000000, 5732.000000)">
                <path d="M30.4623594,63 L28.2679463,63 C27.3939447,63 26.5931251,62.5169316 26.1916698,61.7467173 L25.5361686,60.4903248 C25.1556224,59.7595024 24.4123029,59.2836904 23.5843014,59.240152 L12.0131894,58.6316517 C10.6614142,58.5601244 9.65254877,57.3680028 9.81773089,56.0348998 L9.81773089,56.0348998 C9.96095843,54.8728404 10.956233,54 12.1375988,54 L30.4623594,54 C31.7534981,54 32.8,55.0366275 32.8,56.3168625 L32.8,60.6821009 C32.8,61.9623359 31.7534981,63 30.4623594,63" id="Fill-1" fill="#F0F0F7"></path>
                <polygon id="Fill-3" fill="#F0F0F7" points="44.8 30 45.8312605 57 89.0794333 57 89.8 30"></polygon>
                <g id="Group-7" transform="translate(-0.200000, 0.000000)">
                    <mask id="mask-2" fill="white">
                        <use xlink:href="#path-1"></use>
                    </mask>
                    <g id="Clip-6"></g>
                    <path d="M90.0487769,67.676291 C87.7967141,67.676291 85.8237313,66.3550743 84.9333333,64.3880427 L88.9539248,64.3880427 C89.4333698,64.3880427 90.0334429,64.3013219 90.4832421,64.1676699 C91.0148229,64.0085118 91.4646221,63.7167218 91.7835706,63.3229074 C92.2476816,62.7515704 92.3979555,62.0527029 92.2067908,61.3538354 C92.0442497,60.7610733 91.6721431,60.2784976 91.3726177,59.8908047 C91.3000365,59.7959219 91.2284775,59.7040999 91.1650968,59.6143184 L90.9514421,59.3133463 C91.0046002,59.2062206 91.0506024,59.0960342 91.0884264,58.9817668 L91.1364732,58.836892 L91.2683461,56.592354 C93.7790434,57.1545088 95.6722892,59.4102695 95.6722892,62.0639256 C95.6722892,65.1583274 93.1493246,67.676291 90.0487769,67.676291 L90.0487769,67.676291 Z M85.7562614,56.270977 L85.3064622,56.270977 L85.3064622,56.270977 L85.2645491,56.2118028 L85.2052574,56.270977 L84.8321285,56.270977 L68.9388828,56.270977 L68.5514421,56.270977 L47.135889,56.270977 L46.0185469,32.7737243 L88.1125958,32.7737243 L87.6505294,41.6641355 L86.9901424,55.4802874 L86.9901424,55.4802874 L87.7200438,56.4280946 L87.7200438,56.4280946 L86.9328952,55.8975674 L85.7562614,56.270977 Z M82.2212486,60.7039396 L82.2202264,61.0957135 L43.3647317,61.0957135 L42.1788974,59.028698 L82.4379701,59.028698 C82.3500548,59.3245689 82.2744067,60.3988865 82.2212486,60.7039396 L82.2212486,60.7039396 Z M38.2656444,56.8157876 L37.9640745,56.5852123 L38.5007667,56.5852123 L37.9262505,52.9398784 L37.91705,52.9041699 C37.8710478,52.7776596 37.8199343,52.65421 37.7637094,52.5317806 C37.7453085,52.4919911 37.7238408,52.4532218 37.7044177,52.4134322 C37.6645491,52.3328329 37.6236583,52.2512134 37.5797006,52.1726545 C37.5531216,52.1257233 37.5234757,52.0798123 37.4958744,52.032881 C37.4539613,51.9635044 37.4120482,51.895148 37.366046,51.8267916 C37.3333333,51.7778199 37.2975539,51.7298684 37.2627966,51.6808966 C37.2331508,51.6411071 37.2065717,51.5992771 37.1759036,51.5594875 L43.7807959,43.7740013 L44.4759401,57.0463628 L38.5682366,57.0463628 L38.2656444,56.8157876 Z M35.1150055,54.4090306 L34.7592552,54.4090306 L34.4760862,54.4090306 L34.2511866,54.4090306 L31.2835341,54.4090306 L30.6446148,54.4090306 L29.7767068,54.4090306 L29.7767068,53.7468919 L29.7767068,53.259215 L29.7767068,52.3807844 L30.0752099,52.3807844 L31.8202264,52.3807844 L32.4591457,52.3807844 L33.2135816,52.3807844 C33.2922965,52.3807844 33.369989,52.3848654 33.4466594,52.3930274 L33.4466594,52.3930274 C34.1673604,52.4675052 34.8093465,52.891927 35.1620299,53.5285596 C35.3123038,53.7999446 35.4043081,54.1009168 35.4308872,54.4090306 L35.1150055,54.4090306 Z M32.109529,59.4867878 C32.0573932,59.7530717 31.9612997,59.9989506 31.7854691,60.3182872 C31.4205184,61.0916325 30.5618109,61.898646 29.5344286,61.8690589 C29.4598028,61.8670184 29.3882439,61.8578362 29.3187295,61.8435528 L29.2931727,61.8384516 L29.2676159,61.8394718 C28.4958014,61.8884435 27.7802118,61.6558278 27.1474261,61.1497865 C26.5616648,60.7121016 26.1670683,60.0530236 26.0086163,59.2817187 C26.0086163,59.1766335 25.9840818,59.07869 25.9626141,58.9919692 C25.9442132,58.9205521 25.9278569,58.853216 25.9278569,58.7960823 C25.9278569,58.040081 25.3564074,57.4697643 24.5989047,57.4697643 L11.9196787,57.5483232 C12.4410369,56.4638032 13.5287331,55.7526927 14.7074115,55.7526927 L26.9685287,55.753713 L26.9685287,55.8108467 C26.9685287,56.0536649 27.0329317,56.2883211 27.1617379,56.5097142 L27.2292077,56.6270423 L27.3631252,56.6025564 C27.4203724,56.592354 27.4796641,56.5852123 27.5440672,56.5852123 L31.2661555,56.5852123 L31.2682001,56.5852123 L31.2712669,56.5872528 C31.29069,56.6056172 31.3090909,56.6311233 31.3295363,56.6586699 C31.3918949,56.7392692 31.4746988,56.8474151 31.6035049,56.9229132 C32.147353,57.6401452 32.3272727,58.5461223 32.109529,59.4867878 L32.109529,59.4867878 Z M17.8692954,65.8459722 C16.4514056,66.5489207 14.8760862,66.9366137 13.2476086,66.9366137 L13.2476086,66.9366137 C7.45235487,66.9366137 2.73866375,62.232266 2.73866375,56.4495198 C2.73866375,51.9165731 5.7369843,47.8478378 10.0519898,46.4909125 L12.8274553,53.4153124 C11.2562249,53.956042 9.98963125,55.2344085 9.41715955,56.8667998 C9.34764513,57.0524843 9.30266521,57.2422498 9.28324206,57.4320153 C9.22803943,57.9778461 9.38342461,58.5124543 9.72588536,58.936876 C9.74121942,58.9562607 9.75348667,58.9776858 9.76984301,58.9960502 C9.80460022,59.0440017 9.84446878,59.0878722 9.88229281,59.1337832 C9.90682731,59.1623501 9.928295,59.1929574 9.95385177,59.220504 C9.99576488,59.2653948 10.0417671,59.3062045 10.0877693,59.3480346 C10.1143483,59.3735407 10.1399051,59.4010873 10.1675064,59.4245529 C10.2175977,59.4674032 10.2707558,59.504132 10.3228916,59.5429013 C10.3504929,59.5622859 10.3760497,59.5847313 10.4046732,59.604116 C10.4608981,59.641865 10.5201899,59.6745128 10.5784593,59.7071607 C10.6060606,59.7224643 10.6316174,59.7408287 10.660241,59.7551122 C10.7205549,59.7867397 10.7829135,59.8122458 10.845272,59.8387722 C10.8738956,59.8510151 10.9014969,59.8663188 10.9301205,59.8775415 C10.9914567,59.9010071 11.0548375,59.9183513 11.1182183,59.9367157 C11.1488865,59.9458979 11.1795546,59.9591611 11.211245,59.9663028 C11.2807594,59.9846672 11.3512961,59.9958899 11.4218328,60.0071126 C11.4473896,60.0111935 11.4729463,60.0183353 11.4985031,60.0224162 C11.5945966,60.0346592 11.69069,60.0407806 11.7878058,60.0407806 L23.1820372,60.0407806 C22.1618109,62.6260804 20.2327857,64.6737112 17.8692954,65.8459722 L17.8692954,65.8459722 Z M23.1932822,53.0194575 L15.4874042,53.0194575 L12.7201168,45.9624259 L13.2476086,45.9624259 C17.7527565,45.9624259 21.7161008,48.7874831 23.1932822,53.0194575 L23.1932822,53.0194575 Z M19.5325301,42.968008 L24.4445418,45.3431374 L26.9685287,51.8012855 L26.9685287,53.1000568 L25.8838992,53.1000568 C24.4005842,47.3754646 19.2258488,43.3903893 13.2476086,43.3903893 C12.7150055,43.3903893 12.1834246,43.4597659 11.6661555,43.5322033 L11.430011,42.968008 L19.5325301,42.968008 Z M26.9685287,42.6629549 L26.9685287,42.9455627 L26.400146,43.067992 L26.1220884,42.3742257 L26.9685287,42.6629549 Z M18.8854326,36.2935681 L18.8854326,35.796709 L18.8854326,34.2816458 L22.3713764,35.4600283 L22.3713764,35.4600283 L26.826433,36.9659093 L26.826433,36.9659093 L27.6698065,37.2515777 L27.6841183,37.256679 L27.8333698,37.3066709 L27.9417306,37.3433997 L27.9417306,37.3433997 L29.5211391,37.8769877 L29.5313618,37.8800484 C30.0578313,38.0239029 30.788755,38.3034499 31.2835341,38.8227544 C31.6321285,39.1890222 31.8089814,39.6216059 31.8089814,40.1092828 L31.8089814,41.9018525 L31.8089814,42.2977074 L31.8089814,44.290245 L31.8089814,44.6860999 L31.8089814,49.5781726 L29.7767068,49.5781726 L29.7767068,45.1115419 L29.7767068,44.715687 L29.7767068,42.7364125 L29.7767068,42.3395374 L29.7767068,41.3162321 C29.7767068,41.3101106 29.7756846,41.3029689 29.7756846,41.2958272 L29.8135086,41.3050094 L29.735816,40.9948551 C29.735816,40.9948551 29.735816,40.9938348 29.735816,40.9938348 L29.7082147,40.8805877 L29.6949252,40.8775269 C29.5037605,40.3582224 28.9834246,40.1113233 28.4385542,39.926659 L28.1983206,39.834837 L24.0550566,38.2595794 L24.0550566,38.2595794 L18.8854326,36.2935681 Z M18.8854326,19.5176867 C18.8854326,18.2933932 19.8841913,17.2966142 21.1119387,17.2966142 L22.4817817,17.2966142 C23.5030303,17.2966142 24.4629427,17.7465421 25.1161738,18.5311102 L29.7143483,24.0383903 C29.8820007,24.2383583 30.1007667,24.3883342 30.3491785,24.4719943 L36.6504564,26.5655361 L36.6504564,27.3847925 L29.0856517,25.4942793 L25.7346477,22.1509379 C25.4709018,21.8866946 25.1182183,21.7407996 24.7420226,21.7397793 L23.3384447,33.0879597 L18.8854326,31.4606696 L18.8854326,19.5176867 Z M25.7581599,9.49786477 L25.7581599,12.2708895 C25.7581599,13.4962032 24.7594012,14.4929822 23.5316539,14.4929822 L21.1119387,14.4929822 C20.9872216,14.4929822 20.8686382,14.4705368 20.7582329,14.4307473 C20.4290617,14.3083179 20.1796276,14.0195887 20.11318,13.6665841 C21.6210296,13.5849645 22.8998905,12.6259346 23.4447609,11.2934952 C23.6257028,10.8496888 23.7258854,10.3640524 23.7258854,9.85597062 L23.7258854,9.83556573 L25.7581599,9.49786477 Z M18.8854326,5.02409235 C18.8854326,3.79979887 19.8841913,2.80301992 21.1119387,2.80301992 L25.9523914,2.80301992 C27.1801387,2.80301992 28.1788974,3.79979887 28.1788974,5.02409235 L28.1788974,6.25348705 L22.0902519,7.26556966 C21.411464,7.37983705 20.9177072,7.96035621 20.9177072,8.64800105 L20.9177072,9.85597062 C20.9177072,10.4150646 20.4617744,10.8700937 19.9015699,10.8700937 C19.3413655,10.8700937 18.8854326,10.4150646 18.8854326,9.85597062 L18.8854326,5.02409235 Z M41.4326396,42.6680561 L35.1242059,49.9821894 C35.079226,49.9628048 35.0383352,49.9485214 34.9953998,49.9311772 C34.9626871,49.917914 34.9289522,49.9046509 34.8972618,49.8924079 C34.8021906,49.8566994 34.7091639,49.8240515 34.6181818,49.7965049 L34.6181818,44.0974188 L41.4326396,42.6680561 Z M39.0599489,30.8424014 L39.0599489,29.0018802 L42.9067543,29.0396292 L42.74728,39.543047 L34.6181818,41.2958272 L34.6181818,40.1092828 C34.6181818,37.2179097 32.0389923,35.6191864 29.6468784,35.0947807 L26.1466229,33.8745682 L26.1466229,26.5247264 L27.3805038,27.7561615 C27.5604235,27.9357246 27.7853231,28.0622349 28.0316904,28.1244698 L37.0133625,30.3659472 L39.0599489,30.8424014 Z M89.528441,61.3089446 C89.6684922,61.4905482 89.8535232,61.7292854 89.9312158,61.8925245 C89.9301935,61.8935448 89.928149,61.8935448 89.9271267,61.894565 L88.475502,59.8428532 L89.2636729,60.95594 C89.3444323,61.0691872 89.4343921,61.1875355 89.528441,61.3089446 L89.528441,61.3089446 Z M90.4392844,54.151929 L91.7937934,31.0433895 C91.8929536,30.6465144 91.7856152,30.2547405 91.5167579,29.9904972 C91.2479007,29.6323913 90.8665936,29.4273221 90.4699525,29.4273221 L45.9551661,29.4273221 L45.9551661,27.3103147 L45.9418766,27.2388976 C45.7384447,26.7308158 45.241621,26.3890338 44.7090179,26.3890338 L39.0599489,26.348224 L39.0599489,26.3472038 L39.0599489,24.7750069 L31.6219058,21.9366865 L27.2741877,16.7293583 C27.0983571,16.5232689 26.9082147,16.3273819 26.705805,16.1457784 C27.8701716,15.2040926 28.5612267,13.7737098 28.5673604,12.2708895 L28.5673604,9.02957252 L29.8145309,8.82144263 C30.4933187,8.70819548 30.9870756,8.12767632 30.9870756,7.44003148 L30.9870756,5.02409235 C30.9870756,2.25412835 28.7288792,-0.00061214674 25.9523914,-0.00061214674 L21.1119387,-0.00061214674 C18.3354509,-0.00061214674 16.0772545,2.25412835 16.0772545,5.02409235 L16.0772545,9.85597062 C16.0803213,10.9058023 16.5198978,11.9087027 17.2866009,12.6228739 L17.2866009,13.4798793 C17.2896678,14.242002 17.5278569,14.9949425 17.962322,15.6213727 C16.7826214,16.5620382 16.0813436,18.004664 16.0772545,19.5176867 L16.0772545,25.2055501 L16.0966776,25.2902304 C16.1529025,25.4075586 16.1815261,25.5412106 16.1815261,25.6860853 L16.1815261,38.9808923 L22.8283315,41.2499162 L23.0246075,41.7488158 L20.1438481,40.4173966 C19.9404162,40.3153722 19.7441402,40.3153722 19.5713764,40.3153722 L4.81489595,40.3153722 C4.05739321,40.3153722 3.48594378,40.8856889 3.48594378,41.6427104 C3.48594378,42.3987116 4.05739321,42.9690283 4.81489595,42.9690283 L8.57378605,42.9690283 L9.0184739,44.1096617 C3.69755385,45.8389763 0,50.9167335 0,56.5311393 C0,63.7769162 5.90668127,69.6718893 13.1668492,69.6718893 C18.0144578,69.6718893 22.5451625,66.9488566 24.796203,62.7107607 C24.9914567,62.9392954 25.1979555,63.1290609 25.4473896,63.3157657 C26.422636,64.1268601 27.6759401,64.5737272 28.9762687,64.5737272 C29.3412194,64.5737272 29.6959474,64.5135328 30.1058781,64.4431359 L30.3348667,64.4013059 C30.4013143,64.3798808 30.5904345,64.3370305 30.7805769,64.29316 C30.9870756,64.2462287 31.1935743,64.1982772 31.2651333,64.1748116 L31.3060241,64.155427 C31.324425,64.1442043 31.482877,64.0534025 31.6403067,63.9615805 C31.8181818,63.8585358 31.9950347,63.7544709 31.9970792,63.7534506 L32.2250456,63.5861305 C32.5991968,63.312705 32.6063527,63.3076037 32.9232567,63.0341782 L33.283096,62.7179024 L33.2749179,62.7056594 C33.9680175,61.9751643 34.4403067,61.0834706 34.6774735,60.0571045 C34.8849945,59.2276457 34.8880613,58.3543164 34.6948521,57.5024121 L42.4446878,63.4198306 L82.2202264,63.4198306 L82.2212486,63.4239116 C82.8826579,67.2345251 86.1743702,70.0004081 90.0487769,70.0004081 C94.4332968,70.0004081 98,66.4397546 98,62.0639256 C98,57.8543965 94.6295728,54.3590386 90.4392844,54.151929 L90.4392844,54.151929 Z" id="Fill-5" fill="#9D9590" mask="url(#mask-2)"></path>
                </g>
            </g>
        </g>
    </g>
</svg>