<?xml version="1.0" encoding="UTF-8"?>
<svg width="59px" height="86px" viewBox="0 0 59 86" version="1.1" xmlns="http://www.w3.org/2000/svg" xmlns:xlink="http://www.w3.org/1999/xlink">
    <title>Group 22</title>
    <g id="Modules" stroke="none" stroke-width="1" fill="none" fill-rule="evenodd">
        <g id="Business-Page" transform="translate(-155.000000, -6069.000000)">
            <g id="Group-22" transform="translate(157.000000, 6071.000000)">
                <polygon id="Fill-1" fill="#F0F0F7" points="4 12.7503982 4 20.9257519 4 38.2503982 26.9996075 51 50 38.2503982 50 12.7503982 26.9996075 0"></polygon>
                <polygon id="Stroke-2" stroke="#9D9590" stroke-width="3" points="4 12.7503982 4 20.9257519 4 38.2503982 26.9996075 51 50 38.2503982 50 12.7503982 26.9996075 0"></polygon>
                <g id="Group-6" transform="translate(4.000000, 12.000000)">
                    <polyline id="Fill-4" fill="#F0F0F7" points="24 38 24 12.6664029 0 0"></polyline>
                    <polyline id="Stroke-5" stroke="#9D9590" stroke-width="3" points="24 38 24 12.6664029 0 0"></polyline>
                </g>
                <g id="Group-9" transform="translate(26.000000, 12.000000)">
                    <line x1="0" y1="12" x2="24" y2="0" id="Fill-7" fill="#F0F0F7"></line>
                    <line x1="0" y1="12" x2="24" y2="0" id="Stroke-8" stroke="#9D9590" stroke-width="3"></line>
                </g>
                <g id="Group-12" transform="translate(15.000000, 7.000000)">
                    <line x1="24" y1="12" x2="0" y2="0" id="Fill-10" fill="#F0F0F7"></line>
                    <line x1="24" y1="12" x2="0" y2="0" id="Stroke-11" stroke="#9D9590" stroke-width="3"></line>
                </g>
                <polygon id="Fill-13" fill="#F0F0F7" points="0 82 9 82 9 57 0 57"></polygon>
                <g id="Group-21" transform="translate(0.000000, 55.000000)">
                    <polygon id="Stroke-14" stroke="#9D9590" stroke-width="3" points="0 27 9.83566652 27 9.83566652 1.86893815 0 1.86893815"></polygon>
                    <path d="M9.76703079,22.1112515 C9.76703079,22.1112515 18.4431273,22.327197 30.4929521,26.4027656 C42.5427769,30.47914 53.5189259,9.55256954 53.9404431,8.89184074 C55.4268877,6.55833998 55.4268877,1.9122884 53.4449615,0.745538026 C50.2485886,-1.13592754 49.2870522,0.942950901 46.9058777,2.58349218 C44.5247031,4.22403346 37.4702548,11.641923 34.8027667,12.8924731 L9.83542792,7.30770314 L9.76703079,22.1112515 Z" id="Fill-16" fill="#F0F0F7"></path>
                    <path d="M9.76703079,22.1112515 C9.76703079,22.1112515 18.4431273,22.327197 30.4929521,26.4027656 C42.5427769,30.47914 53.5189259,9.55256954 53.9404431,8.89184074 C55.4268877,6.55833998 55.4268877,1.9122884 53.4449615,0.745538026 C50.2485886,-1.13592754 49.2870522,0.942950901 46.9058777,2.58349218 C44.5247031,4.22403346 37.4702548,11.641923 34.8027667,12.8924731 L9.83542792,7.30770314 L9.76703079,22.1112515 Z" id="Stroke-17" stroke="#9D9590" stroke-width="3"></path>
                    <g id="Group-20" transform="translate(9.562396, 2.959456)">
                        <path d="M0,5.51668934 L6.78563166,1.59341061 C6.78563166,1.59341061 11.1662293,-0.995518234 14.8875104,0.426660232 C18.6087916,1.84803293 23.4610113,3.73433309 24.5553654,4.76571464 C27.0335684,7.0992154 26.7202141,13.8112531 21.425799,12.4970474 C16.1313838,11.1836475 12.2271802,10.5180841 12.2271802,10.5180841" id="Fill-18" fill="#F0F0F7"></path>
                        <path d="M0,5.51668934 L6.78563166,1.59341061 C6.78563166,1.59341061 11.1662293,-0.995518234 14.8875104,0.426660232 C18.6087916,1.84803293 23.4610113,3.73433309 24.5553654,4.76571464 C27.0335684,7.0992154 26.7202141,13.8112531 21.425799,12.4970474 C16.1313838,11.1836475 12.2271802,10.5180841 12.2271802,10.5180841" id="Stroke-19" stroke="#9D9590" stroke-width="3"></path>
                    </g>
                </g>
            </g>
        </g>
    </g>
</svg>