<?xml version="1.0" encoding="UTF-8"?>
<svg width="96px" height="71px" viewBox="0 0 96 71" version="1.1" xmlns="http://www.w3.org/2000/svg" xmlns:xlink="http://www.w3.org/1999/xlink">
    <title>Group 11</title>
    <defs>
        <polygon id="path-1" points="0 0 96 0 96 51 0 51"></polygon>
    </defs>
    <g id="Modules" stroke="none" stroke-width="1" fill="none" fill-rule="evenodd">
        <g id="Homepage" transform="translate(-790.000000, -5998.000000)">
            <g id="Group-11" transform="translate(790.000000, 6017.000000)">
                <polygon id="Fill-1" fill="#F0F0F7" points="6.869569 1 61.5425498 1 73.3288699 5.70646692 82.5792482 16.879357 91.4660614 24.4101016 94 26.1253385 94 39.1893618 85.2674265 39.6574247 84.993 33.7852724 80.0873749 31.1696852 73.3288699 31.1696852 68.8168566 32.8302651 66.0014806 38.3864003 66.0014806 41 29.963465 39.1893618 26.463024 32.5718864 18.0589612 29.9443741 12.1577887 30.4064744 9.50466486 35.3027502 7.67982843 39.6574247 2 39.6574247 2.47173324 4.65208318 2.47173324 1"></polygon>
                <polygon id="Fill-2" fill="#9D9590" points="56 23.0858188 64.7325158 24 65 21.9141812 56.2684194 21"></polygon>
                <g id="Group-10">
                    <path d="M17.9826776,44.3726627 C15.5747325,44.3726627 13.6160978,42.4120065 13.6160978,40.0015761 C13.6160978,37.592143 15.5747325,35.6314867 17.9826776,35.6314867 C20.3906228,35.6314867 22.3492575,37.592143 22.3492575,40.0015761 C22.3492575,42.4120065 20.3906228,44.3726627 17.9826776,44.3726627 M17.9826776,33.1502493 C14.2088687,33.1502493 11.1384149,36.2238722 11.1384149,40.0015761 C11.1384149,43.7802773 14.2088687,46.8539002 17.9826776,46.8539002 C21.7564865,46.8539002 24.8269404,43.7802773 24.8269404,40.0015761 C24.8269404,36.2238722 21.7564865,33.1502493 17.9826776,33.1502493" id="Fill-3" fill="#9D9590"></path>
                    <path d="M75.3167775,44.3726627 C72.9088324,44.3726627 70.9501977,42.4120065 70.9501977,40.0015761 C70.9501977,37.592143 72.9088324,35.6314867 75.3167775,35.6314867 C77.7247227,35.6314867 79.6833574,37.592143 79.6833574,40.0015761 C79.6833574,42.4120065 77.7247227,44.3726627 75.3167775,44.3726627 M75.3167775,33.1502493 C71.5429686,33.1502493 68.4725148,36.2238722 68.4725148,40.0015761 C68.4725148,43.7802773 71.5429686,46.8539002 75.3167775,46.8539002 C79.0905864,46.8539002 82.1610403,43.7802773 82.1610403,40.0015761 C82.1610403,36.2238722 79.0905864,33.1502493 75.3167775,33.1502493" id="Fill-5" fill="#9D9590"></path>
                    <g id="Group-9">
                        <mask id="mask-2" fill="white">
                            <use xlink:href="#path-1"></use>
                        </mask>
                        <g id="Clip-8"></g>
                        <path d="M93.5221179,33.5326072 L87.6651425,31.0533644 L87.6651425,27.2427502 L85.1864634,27.2427502 L85.1864634,32.6978822 L93.5221179,36.2262657 L93.5221179,37.1397759 C93.5221179,38.4591799 92.4501489,39.5322552 91.1321053,39.5322552 L86.292305,39.5322552 L86.2913087,39.5322552 C86.28832,39.4644401 86.2813462,39.3976222 86.2773612,39.3308043 C86.2713837,39.2400516 86.2664024,39.149299 86.2584324,39.0585463 C86.2504623,38.9677937 86.2404998,38.8780383 86.2305373,38.7882829 C86.2205747,38.6985275 86.2106122,38.6097695 86.1986571,38.5210114 C86.1867021,38.431256 86.1717583,38.3424979 86.1568145,38.2537398 C86.1428669,38.165979 86.1289194,38.0772209 86.1119831,37.9904574 C86.096043,37.9016993 86.0761179,37.8149358 86.0571891,37.727175 C86.0392565,37.6414087 86.021324,37.5546452 86.0004027,37.4688789 C85.9794813,37.3821154 85.9555712,37.2953519 85.9326574,37.2085884 C85.9107398,37.1248167 85.8888222,37.0400477 85.8639159,36.956276 C85.8390096,36.8705098 85.8111145,36.7857408 85.7842156,36.7009719 C85.7573168,36.6181975 85.7314142,36.5354231 85.7035191,36.4536459 C85.6746277,36.368877 85.6427476,36.2861026 85.6118637,36.2033282 C85.5809799,36.1225483 85.5520885,36.0407712 85.5192121,35.9609887 C85.4863358,35.8782143 85.4504706,35.7974344 85.4156017,35.7166546 C85.3817291,35.6368721 85.3488528,35.5580868 85.3129876,35.4793015 C85.2761262,35.3985217 85.2362761,35.3197364 85.1974222,35.2409511 C85.1605608,35.1641604 85.1236994,35.0863724 85.0838493,35.0095817 C85.0430029,34.9317937 85.000164,34.855003 84.9573251,34.777215 C84.9164787,34.7024189 84.8766285,34.6266255 84.8337896,34.5528266 C84.7899544,34.4770332 84.7431305,34.402237 84.6973029,34.3274409 C84.6524714,34.2546393 84.6086363,34.1808405 84.5628086,34.1090362 C84.5149884,34.03424 84.4651757,33.9624357 84.4153631,33.8896341 C84.3685391,33.8188271 84.3217152,33.7480201 84.2719025,33.6792076 C84.2210936,33.6074034 84.1672959,33.5365963 84.1144945,33.4667866 C84.0636855,33.3979741 84.0138728,33.330159 83.9620676,33.2633411 C83.9072737,33.1935314 83.8504872,33.1267135 83.794697,33.057901 C83.7408993,32.9930777 83.6880979,32.9272571 83.6333039,32.8624338 C83.5755212,32.7956159 83.515746,32.7307925 83.456967,32.6659692 C83.4001806,32.6031405 83.3443904,32.5393144 83.2866077,32.4774829 C83.2258362,32.4136569 83.1640685,32.3518254 83.1013045,32.2899939 C83.0425255,32.2291597 82.9837465,32.1683255 82.9229751,32.1094859 C82.8602111,32.0486517 82.7944583,31.9898121 82.7306981,31.9309724 C82.6679341,31.8731301 82.6061664,31.8142905 82.5424062,31.7584427 C82.4766534,31.7006003 82.4079119,31.6447525 82.3411629,31.5889047 C82.2764064,31.5340542 82.2126462,31.4782065 82.1458972,31.4253505 C82.0771557,31.3695027 82.0064217,31.3176441 81.9356877,31.2637908 C81.8689387,31.2119322 81.8021897,31.1600735 81.7344444,31.1102094 C81.6627142,31.0583508 81.5899877,31.009484 81.5172611,30.9586226 C81.4475234,30.910753 81.3787819,30.8608889 81.3080479,30.815014 C81.2343251,30.7661472 81.1586098,30.7202722 81.0838908,30.6733999 C81.0121605,30.6285223 80.9414265,30.58165 80.8687,30.5387669 C80.7919885,30.4928919 80.7142807,30.4510061 80.6365729,30.4071257 C80.5628501,30.3662371 80.4901236,30.323354 80.4154046,30.2834627 C80.3367005,30.2415769 80.2550077,30.2016856 80.1753074,30.1617943 C80.1005884,30.1238976 80.0258694,30.0850036 79.9511504,30.0491015 C79.8694576,30.0102075 79.7857723,29.9753026 79.7030832,29.9384032 C79.6263717,29.9044956 79.5506564,29.8695907 79.4729486,29.8366804 C79.3892633,29.8017756 79.3045817,29.7708598 79.2199002,29.7379495 C79.1411961,29.7070338 79.0644846,29.6751207 78.9857806,29.6471969 C78.8981102,29.6152838 78.8084474,29.5873599 78.7197808,29.5574415 C78.642073,29.5315122 78.5653615,29.5045855 78.4876537,29.4806508 C78.3969946,29.4527269 78.3053393,29.4287921 78.2146802,29.4028628 C78.1359762,29.3809226 78.0582684,29.3569878 77.9785681,29.3370422 C77.8859165,29.3131074 77.7912724,29.2941591 77.6976246,29.2722189 C77.6189205,29.2542678 77.5412127,29.2353194 77.4615124,29.2183656 C77.3638796,29.19842 77.2642542,29.1834608 77.1646288,29.1655097 C77.0889136,29.152545 77.0131983,29.1365885 76.9364868,29.1256184 C76.8318801,29.1096619 76.7262772,29.0986918 76.6206743,29.0857271 C76.5479478,29.0767516 76.4762176,29.0647842 76.403491,29.0578032 C76.2809518,29.0458359 76.1584126,29.0378576 76.0358734,29.0298793 C75.9780907,29.0258902 75.9213043,29.0199065 75.8635215,29.0169147 C75.6822034,29.0079391 75.499889,29.0029527 75.3165783,29.0029527 C75.1332676,29.0029527 74.9509532,29.0079391 74.7706313,29.0169147 C74.7128486,29.0199065 74.6560621,29.0258902 74.5992756,29.0298793 C74.4757402,29.0378576 74.3522047,29.0458359 74.2306618,29.0578032 C74.156939,29.0657815 74.0842125,29.0767516 74.011486,29.0857271 C73.9068793,29.0986918 73.8012765,29.1096619 73.6976661,29.1256184 C73.6209545,29.1365885 73.5452393,29.152545 73.4685277,29.1655097 C73.3698986,29.1834608 73.2702732,29.19842 73.1716441,29.2183656 C73.0919438,29.2353194 73.014236,29.2552651 72.935532,29.2732161 C72.8418842,29.2941591 72.7472401,29.3131074 72.6545885,29.3370422 C72.5748882,29.3579851 72.4961841,29.3819199 72.4164838,29.4038601 C72.326821,29.4287921 72.2361619,29.4527269 72.1464991,29.4806508 C72.0677951,29.5045855 71.9910835,29.5315122 71.914372,29.5574415 C71.8247092,29.5873599 71.7360426,29.6152838 71.6483723,29.6471969 C71.5696682,29.6751207 71.4929567,29.7070338 71.4152489,29.7369522 C71.3305673,29.7698625 71.2448895,29.8017756 71.160208,29.8366804 C71.0825002,29.8695907 71.0067849,29.9044956 70.9300734,29.9384032 C70.8473843,29.9753026 70.7646953,30.0102075 70.6830025,30.0491015 C70.6072872,30.0850036 70.5335644,30.1238976 70.4598416,30.1617943 C70.3791451,30.2016856 70.2974523,30.2405796 70.217752,30.2834627 C70.1440292,30.323354 70.0713027,30.3652398 69.9985762,30.4071257 C69.9198721,30.4510061 69.8421644,30.4928919 69.7654528,30.5387669 C69.6927263,30.58165 69.6219923,30.6285223 69.550262,30.6733999 C69.4745468,30.7202722 69.3988315,30.7661472 69.3251087,30.815014 C69.2543747,30.8608889 69.1866294,30.910753 69.1168917,30.9586226 C69.0441652,31.009484 68.9704424,31.0583508 68.8997084,31.1102094 C68.8309669,31.1600735 68.7652141,31.2129295 68.6974689,31.2637908 C68.6277311,31.3176441 68.5569971,31.3695027 68.4872594,31.4253505 C68.4215066,31.4782065 68.3577464,31.533057 68.2929899,31.5879075 C68.2262409,31.6447525 68.1574994,31.7006003 68.0917467,31.7584427 C68.0279864,31.8142905 67.9662187,31.8731301 67.904451,31.9299752 C67.8396945,31.9898121 67.7739417,32.0486517 67.7111778,32.1094859 C67.6504063,32.1683255 67.5906311,32.230157 67.5308558,32.2899939 C67.4700844,32.3528227 67.4073204,32.4136569 67.3475452,32.4774829 C67.2887662,32.5393144 67.232976,32.6031405 67.1761895,32.6659692 C67.1174106,32.7317898 67.0576354,32.7966132 67.0008489,32.8624338 C66.9450587,32.9272571 66.8922572,32.9930777 66.8384595,33.0588983 C66.7826693,33.1267135 66.7258829,33.1935314 66.6720852,33.2633411 C66.6192837,33.330159 66.5694711,33.3979741 66.5186621,33.4667866 C66.4658607,33.5365963 66.4130592,33.6074034 66.361254,33.6792076 C66.3124376,33.7480201 66.2656137,33.8188271 66.2187898,33.8886369 C66.1689771,33.9624357 66.1181681,34.03424 66.070348,34.1090362 C66.0245203,34.1808405 65.9816814,34.253642 65.93685,34.3264436 C65.8910223,34.402237 65.8441984,34.4760359 65.8003632,34.5528266 C65.7575243,34.6266255 65.7166779,34.7024189 65.6758315,34.777215 C65.6339889,34.855003 65.5901537,34.9317937 65.5503035,35.0095817 C65.5104534,35.0863724 65.473592,35.1641604 65.4357344,35.2409511 C65.3968805,35.3197364 65.3580266,35.399519 65.3211652,35.4793015 C65.2853001,35.5580868 65.2524237,35.6368721 65.2175548,35.7166546 C65.1826859,35.7974344 65.1478171,35.8782143 65.1139444,35.9609887 C65.0820643,36.0407712 65.053173,36.1215511 65.0222891,36.2023309 C64.9914052,36.2861026 64.9595251,36.368877 64.9306338,36.4536459 C64.9017424,36.5354231 64.8758398,36.6181975 64.8499372,36.7009719 C64.8230384,36.7857408 64.7951433,36.8705098 64.7702369,36.956276 C64.7453306,37.0400477 64.723413,37.1248167 64.7004992,37.2095856 C64.6775853,37.2953519 64.6536752,37.3821154 64.6327539,37.4688789 C64.6128288,37.5546452 64.5948963,37.6404114 64.5759675,37.727175 C64.5580349,37.8149358 64.5381098,37.9026966 64.5211735,37.9904574 C64.5052334,38.0782182 64.4912859,38.165979 64.4773383,38.2527425 C64.4623945,38.3424979 64.4474507,38.431256 64.4354957,38.5210114 C64.4225444,38.6097695 64.4135781,38.6985275 64.4036156,38.7882829 C64.393653,38.8780383 64.3826942,38.9677937 64.3747242,39.0585463 C64.3667542,39.149299 64.3617729,39.2400516 64.3567916,39.3308043 C64.3528066,39.3976222 64.3458329,39.4644401 64.3428441,39.5322552 L64.3418478,39.5322552 L53.2923984,39.5322552 L53.2923984,16.1609535 L74.8861967,17.9361153 L74.8861967,17.9361153 L75.036631,17.94908 L75.1591702,18.1056532 L75.3285333,17.9730147 L80.8079285,18.4237862 C80.8149023,18.4287726 80.8208798,18.433759 80.8278536,18.4397427 C81.0231193,18.607286 81.218385,18.7678484 81.4116582,18.9214298 C81.4196283,18.9274135 81.426602,18.9333972 81.4345721,18.9403782 C81.6288415,19.0939596 81.8211185,19.24056 82.0094104,19.3781849 C82.015388,19.3831714 82.0213655,19.3871605 82.0283393,19.3911496 C82.2176275,19.5297718 82.4049232,19.6604157 82.5862413,19.7800896 C82.5902263,19.7830814 82.5932151,19.785076 82.5972001,19.7870705 C82.781507,19.9087389 82.9608327,20.0204345 83.1341808,20.12116 L91.0015961,24.7006785 C92.344546,25.4825476 93.5221179,27.5319619 93.5221179,29.0867244 L93.5221179,33.5326072 Z M75.3165783,48.5197599 C70.6252197,48.5197599 66.8075757,44.6981756 66.8075757,40.001975 C66.8075757,35.3047772 70.6252197,31.4841901 75.3165783,31.4841901 C80.0089331,31.4841901 83.8255809,35.3047772 83.8255809,40.001975 C83.8255809,44.6981756 80.0089331,48.5197599 75.3165783,48.5197599 L75.3165783,48.5197599 Z M59.9115078,14.2162537 L58.1650751,14.0726451 L56.6049418,9.01143941 C56.6696983,8.97453998 56.7344548,8.95259978 56.798215,8.94661609 C56.8181401,8.94462152 56.845039,8.94462152 56.8779153,8.94661609 C57.0462822,8.95958075 57.387001,9.05432253 57.9090379,9.50808581 C58.1172549,9.68959111 58.3553595,9.92993606 58.6233518,10.2440799 C60.7184732,12.7093608 59.9443841,13.9878762 59.908519,14.043724 L59.8387812,14.1564168 L59.9115078,14.2162537 Z M49.5136082,5.92983828 L61.5553263,5.92983828 L68.1594919,9.14008878 L72.9594421,15.2883318 L62.3991532,14.4206965 C62.4021419,14.4097264 62.4041345,14.397759 62.4071232,14.3877862 C62.4170858,14.3518841 62.4250558,14.3149846 62.4340221,14.2780852 C62.4459771,14.2302157 62.4569359,14.1823462 62.4668984,14.1334793 C62.4748685,14.0935881 62.4818422,14.0536968 62.488816,14.0128082 C62.4977823,13.9629441 62.5057523,13.91308 62.5127261,13.8612214 C62.5187036,13.8183383 62.5236849,13.7754551 62.5286662,13.7315747 C62.5336474,13.6787188 62.5386287,13.6258628 62.5426137,13.5720096 C62.5465987,13.5261347 62.5485912,13.4802597 62.5495875,13.4333874 C62.5525762,13.3775396 62.5535725,13.3226891 62.5535725,13.2658441 C62.5535725,13.2169773 62.5525762,13.1681104 62.55158,13.1182463 C62.5495875,13.060404 62.547595,13.0015644 62.54361,12.9427247 C62.539625,12.8918634 62.5356399,12.8400047 62.5306587,12.7871488 C62.5246811,12.7273118 62.5167111,12.6654804 62.5087411,12.6036489 C62.5017673,12.5497957 62.4937973,12.4949451 62.4838347,12.4400946 C62.4738722,12.3772659 62.4609209,12.3124426 62.4469734,12.2476192 C62.4360146,12.1917714 62.4240595,12.1349264 62.410112,12.077084 C62.3941719,12.0112634 62.3752431,11.9434482 62.3563143,11.8756331 C62.3403742,11.8167934 62.3244342,11.7589511 62.3055053,11.6991142 C62.2835878,11.6293044 62.2586814,11.5584974 62.2337751,11.4876904 C62.2128537,11.4268562 62.1919324,11.3670193 62.1680223,11.3051878 C62.1401272,11.2323862 62.1082471,11.1575901 62.076367,11.082794 C62.0494681,11.0209625 62.0245618,10.9601283 61.9956704,10.8972995 C61.9598053,10.8195115 61.9199552,10.7407263 61.880105,10.6609437 C61.8482249,10.5991122 61.8193335,10.5372807 61.7854609,10.4734547 C61.7406295,10.3906803 61.6908168,10.3059113 61.6410041,10.2211424 C61.605139,10.1593109 61.5722626,10.0984767 61.5334087,10.0356479 C61.4776185,9.94489529 61.4158508,9.85115079 61.3540831,9.75840357 C61.3162254,9.69956393 61.2803603,9.64271886 61.2395139,9.58387923 C61.1657911,9.47617278 61.0840983,9.36647177 61.0024055,9.25776804 C60.9675367,9.21089579 60.9366528,9.16502083 60.8997914,9.11814858 C60.7782485,8.95958075 60.6487355,8.79901836 60.5102562,8.63646141 C59.1782651,7.06873423 57.8383039,6.342713 56.5252415,6.4803379 C54.956142,6.64987583 54.2049667,7.97825534 54.1242702,8.12884491 L53.880188,8.58560003 L55.5040815,13.8532431 L52.8909081,13.6388275 L49.5136082,5.92983828 Z M50.8147155,23.97366 L22.4424072,23.97366 L22.4424072,26.4548974 L50.8147155,26.4548974 L50.8147155,39.5322552 L31.7932442,39.5322552 L28.2635174,36.1245429 C28.2127085,35.9899099 28.1529332,35.8622578 28.097143,35.7306166 C28.0443416,35.6059563 27.9965214,35.4783042 27.9387387,35.3566358 C27.8759747,35.2220028 27.8042445,35.0923561 27.735503,34.9607149 C27.6747315,34.8430356 27.617945,34.7233618 27.5531885,34.6076771 C27.4794658,34.4790277 27.397773,34.3553648 27.3200652,34.2297073 C27.2513237,34.119009 27.1865672,34.0043216 27.1138407,33.8966151 C27.0321479,33.7739494 26.9414888,33.6582647 26.855811,33.5405855 C26.7781032,33.4348736 26.7053767,33.3261699 26.6246801,33.2244471 C26.534021,33.1097597 26.4363882,33.0020532 26.3427403,32.8913549 C26.2580588,32.7916267 26.176366,32.6889067 26.0886956,32.5931676 C25.9910628,32.4874558 25.8874524,32.3887248 25.7868308,32.2860048 C25.6941792,32.1922603 25.6045163,32.095524 25.508876,32.0057686 C25.4042694,31.908035 25.2936852,31.8172823 25.1860898,31.7235378 C25.0874607,31.6377716 24.9908241,31.5470189 24.88821,31.4642445 C24.7776258,31.3744891 24.6600679,31.292712 24.5454987,31.2069458 C24.4398958,31.1281605 24.3382779,31.0453861 24.2306825,30.97059 C24.1151171,30.8908074 23.9945704,30.8190031 23.8770125,30.744207 C23.7634396,30.6714054 23.6528554,30.5946147 23.53729,30.5267995 C23.415747,30.4549952 23.2892228,30.3921664 23.1656874,30.3253486 C23.0481294,30.2625198 22.9335603,30.1947046 22.8140098,30.135865 C22.6835006,30.0710417 22.5480101,30.0161912 22.4145121,29.9563543 C22.2969542,29.9044956 22.1813887,29.8466532 22.0618383,29.7987837 C21.9223628,29.7429359 21.7798985,29.6960637 21.6394267,29.6461996 C21.5208726,29.6033165 21.4043109,29.5564442 21.2837642,29.5175502 C21.1383111,29.4716752 20.9888731,29.4347758 20.8404313,29.3948845 C20.7218771,29.3619742 20.6043192,29.3240775 20.4837725,29.2961536 C20.3293532,29.2592542 20.1709488,29.2333249 20.014537,29.2034064 C19.8979753,29.1814662 19.7824099,29.1535423 19.664852,29.1345939 C19.4875188,29.1066701 19.3071969,29.0907135 19.126875,29.0717652 C19.0282459,29.0607951 18.930613,29.0438413 18.8299914,29.035863 C18.5500441,29.0139228 18.2671081,29.0029527 17.9821795,29.0029527 C17.8118201,29.0029527 17.642457,29.0069419 17.4730939,29.0149201 C17.4133187,29.017912 17.3545397,29.0238957 17.2957607,29.0268875 C17.1861728,29.0338685 17.0765849,29.0398522 16.9679933,29.049825 C16.8992518,29.056806 16.8315065,29.0667788 16.762765,29.0737598 C16.6651322,29.0847299 16.566503,29.0947027 16.4698664,29.1086646 C16.3961437,29.1186374 16.3224209,29.1325994 16.2496944,29.1445668 C16.1590353,29.1585287 16.06738,29.1714934 15.9777171,29.1884472 C15.9010056,29.2034064 15.8242941,29.2203602 15.7485788,29.237314 C15.662901,29.2542678 15.5772232,29.2712216 15.4925416,29.2911672 C15.4138375,29.3091183 15.337126,29.3310585 15.2594182,29.3510041 C15.1777254,29.371947 15.0960326,29.3918927 15.0153361,29.4148302 C14.9356358,29.4367704 14.8569317,29.4626997 14.7782277,29.4866345 C14.7005199,29.5105692 14.6228121,29.5335067 14.5461006,29.5584388 C14.4644078,29.5853654 14.3837113,29.6162811 14.3030147,29.6452023 C14.2302882,29.6711316 14.1575617,29.6960637 14.0848352,29.7229903 C14.0041386,29.753906 13.9234421,29.7888109 13.8437418,29.8217212 C13.7730078,29.8506424 13.70327,29.877569 13.6335322,29.9074874 C13.5528357,29.9433896 13.4731354,29.9812863 13.3934351,30.0181857 C13.3266861,30.0491015 13.2589409,30.0790199 13.1921919,30.1109329 C13.1124916,30.1508242 13.0337875,30.1927101 12.9550835,30.2335986 C12.890327,30.2665089 12.8245743,30.2994192 12.760814,30.3343241 C12.68211,30.3772072 12.6044022,30.4230822 12.5266944,30.4679599 C12.4649267,30.503862 12.4021627,30.5377696 12.340395,30.574669 C12.2636834,30.620544 12.1889644,30.6694108 12.1132491,30.7182776 C12.0524777,30.7561743 11.9907099,30.7940711 11.9309347,30.8339623 C11.8572119,30.8828292 11.7844854,30.9346878 11.7117589,30.9855492 C11.6529799,31.027435 11.5932047,31.0673263 11.5344258,31.1102094 C11.4616992,31.1630654 11.389969,31.2189132 11.3182387,31.2737637 C11.2624485,31.3166468 11.205662,31.3585326 11.1508681,31.402413 C11.0801341,31.4592581 11.0113926,31.5171005 10.9416548,31.5759401 C10.8878571,31.6208178 10.8330632,31.6656955 10.7792655,31.7115704 C10.7115202,31.7714073 10.6457675,31.8322415 10.5790185,31.8930757 C10.5272133,31.9409453 10.4734156,31.9878175 10.4216104,32.0366843 C10.3568539,32.0985158 10.2940899,32.1623419 10.2303297,32.2261679 C10.180517,32.276032 10.1287118,32.3258961 10.0788991,32.3777547 C10.0171314,32.4415808 9.95735619,32.5074014 9.89758097,32.573222 C9.84876454,32.6260779 9.79895186,32.6789339 9.75113168,32.7337844 C9.69235272,32.799605 9.63656251,32.8674202 9.57977605,32.9342381 C9.53195587,32.9910831 9.4841357,33.0459336 9.43830803,33.103776 C9.38251782,33.1715912 9.32971638,33.2414009 9.27691493,33.3102133 C9.23208352,33.369053 9.1852596,33.4278926 9.14142444,33.4867322 C9.08961924,33.5575393 9.03980656,33.6293436 8.98999388,33.7001506 C8.94715497,33.761982 8.90331981,33.821819 8.86147715,33.8836504 C8.81365698,33.956452 8.76683305,34.0292536 8.72000913,34.1030525 C8.68015899,34.1668785 8.63831633,34.2297073 8.59946244,34.2945306 C8.55463102,34.3673322 8.51179212,34.4421283 8.46895321,34.5169245 C8.43009931,34.5837423 8.39124542,34.649563 8.35438404,34.7173781 C8.31254138,34.791177 8.27368749,34.8679677 8.23483359,34.9427638 C8.19896846,35.0125736 8.16210708,35.081386 8.1272382,35.1511958 C8.09037681,35.2269892 8.05451168,35.3047772 8.01864655,35.3815679 C7.98577018,35.4533722 7.95189755,35.5241792 7.92001743,35.5969808 C7.88614481,35.6737715 7.85426469,35.7525568 7.82238457,35.8303447 C7.79150071,35.9051409 7.76061685,35.9789398 7.73172549,36.0537359 C7.70183788,36.1315239 7.67394278,36.2113064 7.64604767,36.2890944 C7.61815257,36.3668824 7.58926122,36.4436731 7.56335862,36.5214611 C7.53745602,36.5992491 7.51354594,36.6790317 7.48963585,36.7578169 C7.46472951,36.8375995 7.43882691,36.9183793 7.41591308,36.9991592 C7.3939955,37.0779444 7.37407042,37.1567297 7.3531491,37.2365123 C7.33222777,37.3192867 7.31031019,37.402061 7.29038511,37.4848354 C7.27145629,37.564618 7.25551624,37.6453978 7.23857992,37.7261777 C7.22064736,37.8109466 7.20171854,37.8947183 7.18577848,37.9804846 C7.17083467,38.0602671 7.15887963,38.141047 7.14592833,38.2218268 C7.13496954,38.2876474 7.12201824,38.3514734 7.11305196,38.417294 L7.11205571,38.417294 L4.73698696,38.417294 C3.49166987,38.417294 2.47847988,37.3442187 2.47847988,36.0248147 L2.47847988,26.6942451 L15.816324,26.6942451 L15.816324,24.2130077 L2.47847988,24.2130077 L2.47847988,4.87271945 C2.47847988,3.55331547 3.55044883,2.48024013 4.86749619,2.48024013 L32.6241197,2.48024013 L32.6241197,14.5294003 L6.44356949,14.5294003 L6.44356949,17.0106377 L35.1018026,17.0106377 L35.1018026,2.48024013 L45.2954702,2.48024013 L50.8147155,15.0749135 L50.8147155,23.97366 Z M17.9821795,48.5197599 C13.290821,48.5197599 9.47417316,44.6981756 9.47417316,40.001975 C9.47417316,35.3047772 13.290821,31.4841901 17.9821795,31.4841901 C22.6745343,31.4841901 26.4921784,35.3047772 26.4921784,40.001975 C26.4921784,44.6981756 22.6745343,48.5197599 17.9821795,48.5197599 L17.9821795,48.5197599 Z M62.8942913,2.48024013 L70.0563589,6.53818025 C71.6324322,7.42975029 73.8251865,9.44924617 74.8453503,10.9471636 L77.5521715,14.9203348 C77.6288831,15.0330276 77.7115721,15.1487123 77.7982462,15.2653943 C77.82116,15.2953128 77.8430776,15.3252312 77.8659914,15.356147 C77.9536618,15.4718317 78.0433246,15.5885137 78.1389649,15.7071902 C78.1409574,15.7101821 78.1429499,15.7121766 78.1449425,15.7151685 L76.6804496,15.5944974 L76.320802,15.5655762 L69.7584791,7.15848961 L62.1251834,3.44860087 L48.4266954,3.44860087 L48.2144934,2.96491914 L48.0022914,2.48024013 L62.8942913,2.48024013 Z M92.2469132,22.5555251 L84.3794979,17.9770039 C82.8113947,17.0644909 80.6226253,15.0240521 79.5994728,13.5231428 L76.8926516,9.54997165 C75.6563008,7.73292399 73.1895767,5.46211306 71.2767696,4.37806762 L63.58071,0.0189483564 L63.5468374,0 L4.86749619,0 C2.1835888,0 -0.000199250734,2.18604196 -0.000199250734,4.87271945 L-0.000199250734,36.0248147 C-0.000199250734,38.7114922 2.12480983,40.8975342 4.73698696,40.8975342 L7.03434792,40.8975342 L7.03733668,40.8975342 C7.49760588,46.5740628 12.2766347,51 17.9821795,51 C23.9587053,51 28.8323782,46.1980876 28.9638837,40.2473064 L30.7930055,42.0124954 L64.5161922,42.0124954 L64.519181,42.0124954 C65.4845508,47.2282798 70.0045537,51 75.3165783,51 C80.6295991,51 85.1486058,47.2282798 86.1149718,42.0124954 L86.1179606,42.0124954 L91.1321053,42.0124954 C93.817009,42.0124954 96.000797,39.8264534 96.000797,37.1397759 L96.000797,29.0867244 C96.000797,26.6493674 94.3519972,23.7811846 92.2469132,22.5555251 L92.2469132,22.5555251 Z" id="Fill-7" fill="#9D9590" mask="url(#mask-2)"></path>
                    </g>
                </g>
            </g>
        </g>
    </g>
</svg>