<?xml version="1.0" encoding="UTF-8"?>
<svg width="72px" height="71px" viewBox="0 0 72 71" version="1.1" xmlns="http://www.w3.org/2000/svg" xmlns:xlink="http://www.w3.org/1999/xlink">
    <title>Group 5</title>
    <defs>
        <polygon id="path-1" points="0 0 70 0 70 62 0 62"></polygon>
    </defs>
    <g id="Modules" stroke="none" stroke-width="1" fill="none" fill-rule="evenodd">
        <g id="Homepage" transform="translate(-802.000000, -5728.000000)">
            <g id="Group-5" transform="translate(803.000000, 5736.000000)">
                <polygon id="Fill-1" fill="#F0F0F7" points="10.7011372 49.0831552 29.3726819 49.0831552 35.9517943 55.2 51.1278703 55.2 52.079012 50.6321784 55.1507319 46.2237744 68.4575439 45.5225212 68.6666667 43.9412459 64.7272707 41.4504607 58.7645201 41.4504607 51.1278703 28.2694803 53.3108185 28.2694803 54.9700425 20.4635459 51.8983226 20.4635459 47.7424661 25.2700332 47.7424661 29.269296 51.1278703 42.3599705 46.8390191 50.6321784 37.954053 50.6321784 37.954053 36.6495024 22.9577492 36.347254 22.9577492 15.2 1.66666667 15.2 1.66666667 36.347254 17.5673347 36.347254 11.062516 39.3384077"></polygon>
                <g id="Group-4" transform="translate(-0.333333, 0.200000)">
                    <mask id="mask-2" fill="white">
                        <use xlink:href="#path-1"></use>
                    </mask>
                    <g id="Clip-3"></g>
                    <path d="M61.698079,59.3134802 C58.5949193,59.3134802 56.0712925,56.784088 56.0712925,53.6758523 C56.0757989,52.1416012 56.7094095,50.6768835 57.8171014,49.6257545 L60.5480262,54.3603505 C60.7282852,54.6691874 61.0185023,54.8886241 61.3636984,54.9789273 C61.7097958,55.0692305 62.0703139,55.0195637 62.3785569,54.8380543 C62.6867999,54.657448 62.9058146,54.3666717 62.9959442,54.0208105 C63.0860737,53.6740463 63.0365025,53.3137366 62.8562434,53.0058027 L60.1334303,48.2838491 C60.6408596,48.1276246 61.1663147,48.0445457 61.6989802,48.0382245 C61.8044318,48.0382245 61.9080808,48.0481578 62.012631,48.053576 C62.0991554,48.0589942 62.1874823,48.0580912 62.2731053,48.0671215 C62.3677414,48.0770548 62.4596735,48.0960185 62.5525069,48.110467 C62.6453403,48.1240125 62.7399763,48.1339458 62.8310071,48.1529095 C62.8986043,48.166455 62.9634975,48.1881278 63.0301934,48.2043823 C63.1437566,48.2323763 63.2591224,48.2576612 63.3699817,48.2919764 C63.4213555,48.308231 63.4700255,48.3299038 63.520498,48.3470614 C63.6439755,48.3895039 63.7674529,48.4310433 63.8864239,48.4816131 C63.9188705,48.4960616 63.9495146,48.5132192 63.9819612,48.5276677 C64.1162542,48.5881709 64.2496459,48.649577 64.3785311,48.7200135 C64.4001622,48.7317529 64.4199907,48.7462014 64.4407205,48.7579409 C64.5777174,48.8346986 64.7129117,48.9141654 64.8426982,49.0026625 C64.8778487,49.0270443 64.9102954,49.0550383 64.9454459,49.0803232 C65.0581078,49.15979 65.1698684,49.2392568 65.27532,49.3268509 C65.3005562,49.3476207 65.3230886,49.3720025 65.3474236,49.3927722 C65.5970824,49.6067908 65.8296166,49.83887 66.0387171,50.0917189 C66.0405197,50.094428 66.0423223,50.0971371 66.0441248,50.0989432 C66.1567868,50.236204 66.2631396,50.378883 66.3631834,50.5260772 C66.3794067,50.5504591 66.3920248,50.575744 66.4082481,50.6001258 C66.7876935,51.1825814 67.0661937,51.8372795 67.2104009,52.5407413 C67.2852085,52.9073722 67.3248654,53.2866456 67.3248654,53.6758523 C67.3248654,56.784088 64.8003373,59.3134802 61.698079,59.3134802 L61.698079,59.3134802 Z M50.1813277,49.3819359 C50.008279,49.613112 49.913643,49.8984701 49.913643,50.1865373 L49.913643,52.5127473 C49.913643,53.0563725 49.4720083,53.4988581 48.9294286,53.4988581 L36.6456751,53.4988581 L30.0527,47.9939759 C29.8129555,47.7935028 29.5083177,47.6833329 29.1964695,47.6833329 L11.961901,47.6833329 L11.961901,43.0309128 L11.9258491,43.0309128 L11.9258491,41.0595943 L11.961901,41.0595943 L11.961901,40.4780418 L16.7982515,37.5711822 L35.9841243,37.5711822 L35.9841243,50.1865373 C35.9841243,50.3626285 36.0201761,50.5296894 36.0814642,50.6832048 C36.0850694,50.6913321 36.0859707,50.7003624 36.0895759,50.7075866 C36.1003914,50.7328715 36.1157134,50.7554473 36.1283316,50.7798292 C36.1932248,50.9107688 36.2743414,51.0317751 36.3761878,51.1338177 C36.4780341,51.2358603 36.599709,51.3171331 36.7303968,51.3821514 C36.7547318,51.3947939 36.7763629,51.4110484 36.8015992,51.4218848 C36.8097108,51.4245939 36.8178225,51.425497 36.8259341,51.4291091 C36.9791543,51.4905153 37.145894,51.5266365 37.3216465,51.5266365 L46.6076919,51.5266365 C47.1457652,51.5266365 47.6288595,51.2051572 47.8388613,50.7093927 L51.320565,42.5044452 C51.4350295,42.2371478 51.4584632,41.9346321 51.3881621,41.6537892 L48.3228568,29.429447 L49.3557413,29.429447 L56.5904385,40.8193878 L50.1813277,49.3819359 Z M23.3921278,53.4988581 C22.8495481,53.4988581 22.4088147,53.0563725 22.4088147,52.5127473 L22.4088147,50.3635315 L28.7124739,50.3635315 L32.4663688,53.4988581 L23.3921278,53.4988581 Z M21.7607834,59.3134802 C20.5584554,59.3568258 19.4219221,59.0272191 18.4638452,58.429412 C16.8676512,57.4324649 15.768071,55.6878073 15.6878557,53.6767554 C15.6968686,52.4694018 16.1213787,51.2954604 16.8865784,50.3635315 L19.732869,50.3635315 L19.732869,52.5127473 C19.732869,54.5346356 21.375029,56.1790567 23.3921278,56.1790567 L27.1919888,56.1790567 C26.112237,58.1350237 24.0158242,59.3514076 21.7607834,59.3134802 L21.7607834,59.3134802 Z M2.67495429,34.8900806 L2.67495429,16.6361947 L8.12508691,16.6361947 L8.12508691,16.6876675 L10.8010326,16.6876675 L10.8010326,16.6361947 L12.7685602,16.6361947 L12.7685602,16.6876675 L15.4436047,16.6876675 L15.4436047,16.6361947 L20.8937373,16.6361947 L20.8937373,34.8900806 L2.67495429,34.8900806 Z M28.212255,32.9187621 L38.4825149,32.9187621 C39.6650143,32.9187621 40.6266964,33.8822971 40.6266964,35.0670749 L40.6266964,44.1940179 L38.6591687,44.1940179 L38.6591687,36.2301799 C38.6591687,35.4914998 38.0598074,34.8900806 37.3216465,34.8900806 L28.212255,34.8900806 L28.212255,32.9187621 Z M28.212255,18.7854105 C28.212255,17.6006327 29.1748384,16.6361947 30.3573378,16.6361947 L31.6714264,16.6361947 C32.6529369,16.6370977 33.5767646,17.071456 34.2049674,17.8290998 L38.6159066,23.1317028 C38.7754358,23.3240486 38.9836351,23.4667276 39.2206757,23.5461944 L45.2701697,25.5644706 L45.2701697,26.3726842 L38.0012232,24.5485598 L34.7854016,21.3265421 C34.5321376,21.0736932 34.1968558,20.9346263 33.8399428,20.9346263 L33.8390415,20.9346263 C33.4821286,20.9346263 33.1459455,21.0736932 32.8935828,21.3265421 C32.6412201,21.5793911 32.5015193,21.9162219 32.5015193,22.2738226 L32.5015193,30.2376605 L28.212255,30.2376605 L28.212255,18.7854105 Z M34.823256,9.12567873 L34.823256,11.8067803 C34.823256,12.9924611 33.8615739,13.9559961 32.6781732,13.9559961 L30.3573378,13.9559961 C29.8733423,13.9559961 29.469562,13.6038137 29.3884454,13.1423644 C31.3172173,13.0421279 32.8557284,11.4383433 32.8557284,9.48147328 L32.8557284,9.45347929 L34.823256,9.12567873 Z M28.212255,4.82905316 C28.212255,3.64427536 29.1748384,2.67983734 30.3573378,2.67983734 L34.9999099,2.67983734 C36.1833106,2.67983734 37.1449927,3.64427536 37.1449927,4.82905316 L37.1449927,6.02015218 L31.2973888,6.99632961 C30.6502588,7.10469344 30.180684,7.66096106 30.1797827,8.31836825 L30.1797827,9.48147328 C30.1797827,10.0250985 29.7390493,10.466681 29.1964695,10.466681 C28.6538897,10.466681 28.212255,10.0250985 28.212255,9.48147328 L28.212255,4.82905316 Z M44.102091,48.846438 L38.6591687,48.846438 L38.6591687,46.8751194 L41.9651199,46.8751194 C43.0881338,46.8751194 44.0119615,47.7438361 44.102091,48.846438 L44.102091,48.846438 Z M48.683375,41.8723229 L46.4130121,47.2209806 C45.8641233,45.8664328 44.7122679,44.8144007 43.3026421,44.4017152 L43.3026421,35.0670749 C43.3026421,32.4040339 41.1404347,30.2376605 38.4825149,30.2376605 L35.177465,30.2376605 L35.177465,25.5093857 L36.3761878,26.7113211 C36.5474339,26.8828972 36.7619422,27.0039034 36.9971802,27.0635035 L45.5054078,29.1955617 L48.683375,41.8723229 Z M47.9461154,25.2700823 L51.6964051,22.4517198 L52.2344784,22.4517198 L52.2344784,26.7492484 L47.9461154,26.7492484 L47.9461154,25.2700823 Z M62.8598486,42.2579176 L62.882381,42.2579176 C64.8246723,42.2579176 66.5335282,43.51855 67.1184688,45.3571229 L56.5372621,45.3571229 L58.8373677,42.2768812 L62.8598486,42.2579176 Z M54.9104241,22.4589441 C56.0100044,22.5492473 56.8779517,23.4748549 56.8779517,24.6000326 C56.8779517,25.7252103 56.0100044,26.651721 54.9104241,26.7420242 L54.9104241,22.4589441 Z M70.0008112,46.6972222 C69.9990086,42.7789669 66.8165349,39.5849433 62.9040121,39.576816 L58.9842788,39.5966827 L52.5273994,29.429447 L54.7337702,29.429447 C57.3907888,29.429447 59.5529962,27.2630736 59.5529962,24.6000326 C59.5529962,21.9369917 57.3907888,19.7706183 54.7337702,19.7706183 L51.2511652,19.7706183 C50.963652,19.7706183 50.6788427,19.8663396 50.4481111,20.0388187 L46.3679474,23.1028058 L40.4293127,21.1188448 L36.260822,16.106115 C36.0904772,15.9056419 35.9057116,15.7151022 35.7092293,15.5372049 C36.828638,14.632367 37.4937939,13.2552434 37.4983004,11.8067803 L37.4983004,8.67777493 L38.7033322,8.47639883 C39.3504622,8.368035 39.8200371,7.81267041 39.8200371,7.15526322 L39.8200371,4.82905316 C39.8200371,2.16601221 37.6578297,-0.000361212743 34.9999099,-0.000361212743 L30.3573378,-0.000361212743 C27.699418,-0.000361212743 25.5372106,2.16601221 25.5372106,4.82905316 L25.5372106,9.48147328 C25.5399145,10.4910629 25.962622,11.4555009 26.698079,12.1418051 L26.698079,12.9707884 C26.7007828,13.7058563 26.9306131,14.4318939 27.3479129,15.0342162 C26.2149847,15.9390541 25.5408158,17.3279171 25.5372106,18.7854105 L25.5372106,34.8900806 L23.569683,34.8900806 L23.569683,15.2960954 C23.569683,14.5574153 22.9694203,13.9559961 22.2312595,13.9559961 L1.33743208,13.9559961 C0.600172534,13.9559961 -9.01295289e-05,14.5574153 -9.01295289e-05,15.2960954 L-9.01295289e-05,36.2301799 C-9.01295289e-05,36.969763 0.600172534,37.5702792 1.33743208,37.5702792 L11.598679,37.5702792 L9.93488785,38.5708385 C9.53471274,38.811948 9.28595524,39.2517245 9.28595524,39.719495 L9.28595524,49.0234322 C9.28595524,49.7630153 9.88621791,50.3635315 10.6234775,50.3635315 L13.7392553,50.3635315 C13.2633714,51.398406 13.0128113,52.5371292 13.0128113,53.6812705 C13.1480056,58.3833574 17.0749491,62.1056547 21.7643885,61.9936788 C25.5327041,62.0586971 28.8720032,59.7360991 30.1103829,56.1790567 L48.9294286,56.1790567 C50.9474287,56.1790567 52.5886875,54.5346356 52.5886875,52.5127473 L52.5886875,50.632635 L54.5318801,48.0382245 L55.6026189,48.0382245 C54.1524348,49.6067908 53.3701105,51.6386125 53.396248,53.7860222 C53.4232869,56.0074806 54.3110628,58.0862599 55.8982438,59.6376687 C57.510661,61.2152653 59.60437,62 61.6971777,62 C63.8566812,62 66.0143821,61.1637925 67.6385162,59.4967957 C69.1878428,57.9074596 70.0260474,55.8079106 69.9999099,53.5864522 C69.9746736,51.5067698 69.1950532,49.5517059 67.793539,48.0382245 L68.6623877,48.0382245 C69.4005485,48.0382245 70.0008112,47.4368052 70.0008112,46.6972222 L70.0008112,46.6972222 Z" id="Fill-2" fill="#9D9590" mask="url(#mask-2)"></path>
                </g>
            </g>
        </g>
    </g>
</svg>