<?xml version="1.0" encoding="UTF-8"?>
<svg width="84px" height="86px" viewBox="0 0 84 86" version="1.1" xmlns="http://www.w3.org/2000/svg" xmlns:xlink="http://www.w3.org/1999/xlink">
    <title>Group 24</title>
    <g id="Modules" stroke="none" stroke-width="1" fill="none" fill-rule="evenodd">
        <g id="Business-Page" transform="translate(-796.000000, -6068.000000)">
            <g id="Group-24" transform="translate(797.000000, 6078.000000)">
                <polyline id="Fill-1" fill="#F0F0F7" points="22.718058 61.7199372 46.8039331 73.9503656 80.8039331 55.4507817 80.8039331 18.4507817 46.8039331 -0.0496343803 12.8039331 18.4507817 12.8039331 34.9433039"></polyline>
                <polyline id="Stroke-2" stroke="#9D9590" stroke-width="3" points="22.718058 61.7199372 46.8039331 73.9503656 80.8039331 55.4507817 80.8039331 18.4507817 46.8039331 -0.0496343803 12.8039331 18.4507817 12.8039331 34.9433039"></polyline>
                <polyline id="Fill-4" fill="#F0F0F7" points="46.8039331 73.9503656 46.8039331 36.6167524 12.8039331 17.9503656"></polyline>
                <polyline id="Stroke-5" stroke="#9D9590" stroke-width="3" points="46.8039331 73.9503656 46.8039331 36.6167524 12.8039331 17.9503656"></polyline>
                <line x1="46.8039331" y1="36.9503656" x2="80.8039331" y2="18.9503656" id="Fill-7" fill="#F0F0F7"></line>
                <line x1="46.8039331" y1="36.9503656" x2="80.8039331" y2="18.9503656" id="Stroke-8" stroke="#9D9590" stroke-width="3"></line>
                <g id="Group-12" transform="translate(29.803933, 9.950366)">
                    <line x1="34" y1="18" x2="-5.90974657e-15" y2="0" id="Fill-10" fill="#F0F0F7"></line>
                    <line x1="34" y1="18" x2="-5.90974657e-15" y2="0" id="Stroke-11" stroke="#9D9590" stroke-width="3"></line>
                </g>
                <g id="Group-23" transform="translate(-0.196067, 34.950366)">
                    <path d="M22.4347211,18.5000831 C22.4347211,24.0342072 17.9075541,28.5210204 12.3236566,28.5210204 C6.73975918,28.5210204 2.2125921,24.0342072 2.2125921,18.5000831 C2.2125921,12.965959 6.73975918,8.47914589 12.3236566,8.47914589 C17.9075541,8.47914589 22.4347211,12.965959 22.4347211,18.5000831" id="Fill-13" fill="#FFFFFF"></path>
                    <path d="M22.4347211,18.5000831 C22.4347211,24.0342072 17.9075541,28.5210204 12.3236566,28.5210204 C6.73975918,28.5210204 2.2125921,24.0342072 2.2125921,18.5000831 C2.2125921,12.965959 6.73975918,8.47914589 12.3236566,8.47914589 C17.9075541,8.47914589 22.4347211,12.965959 22.4347211,18.5000831 Z" id="Stroke-15" stroke="#FFFFFF" stroke-width="5"></path>
                    <path d="M13.2225484,28.5209372 C7.63948961,28.5209372 3.11148386,24.0332929 3.11148386,18.5 C3.11148386,12.9667071 7.63948961,8.47906277 13.2225484,8.47906277 C18.8056071,8.47906277 23.3336129,12.9667071 23.3336129,18.5 C23.3336129,24.0332929 18.8056071,28.5209372 13.2225484,28.5209372 M28,16.9581255 L26.336069,16.9581255 C25.9452465,13.8660646 24.4415024,11.1123017 22.2181753,9.10661814 C20.222129,7.30873433 20.3085126,5.64217999 19.3314563,0 L7.11364045,0 C6.13742287,5.64217999 6.22296771,7.30873433 4.22692146,9.10661814 C1.62870664,11.4497686 1.48978588e-15,14.8119693 1.48978588e-15,18.5473784 C1.48978588e-15,22.2844498 1.63038399,25.6491441 4.23111484,27.9922946 C6.22296771,29.7868536 6.14832565,31.4874871 7.11364045,37 L19.3314563,37 C20.2984485,31.4874871 20.222129,29.7868536 22.2148206,27.9922946 C24.463308,25.9666622 25.9813095,23.1763265 26.3528425,20.0418745 L28,20.0418745 C28,20.0418745 28,16.9581255 28,16.9581255" id="Fill-17" fill="#9D9590"></path>
                    <path d="M13.2225484,28.5209372 C7.63948961,28.5209372 3.11148386,24.0332929 3.11148386,18.5 C3.11148386,12.9667071 7.63948961,8.47906277 13.2225484,8.47906277 C18.8056071,8.47906277 23.3336129,12.9667071 23.3336129,18.5 C23.3336129,24.0332929 18.8056071,28.5209372 13.2225484,28.5209372 Z M28,16.9581255 L26.336069,16.9581255 C25.9452465,13.8660646 24.4415024,11.1123017 22.2181753,9.10661814 C20.222129,7.30873433 20.3085126,5.64217999 19.3314563,0 L7.11364045,0 C6.13742287,5.64217999 6.22296771,7.30873433 4.22692146,9.10661814 C1.62870664,11.4497686 1.48978588e-15,14.8119693 1.48978588e-15,18.5473784 C1.48978588e-15,22.2844498 1.63038399,25.6491441 4.23111484,27.9922946 C6.22296771,29.7868536 6.14832565,31.4874871 7.11364045,37 L19.3314563,37 C20.2984485,31.4874871 20.222129,29.7868536 22.2148206,27.9922946 C24.463308,25.9666622 25.9813095,23.1763265 26.3528425,20.0418745 L28,20.0418745 C28,20.0418745 28,16.9581255 28,16.9581255 Z" id="Stroke-19" stroke="#9D9590"></path>
                    <polyline id="Stroke-21" stroke="#9D9590" stroke-width="3" points="19.1518121 19.6578604 12.8902654 19.6578604 12.8902654 11.0566114"></polyline>
                </g>
            </g>
        </g>
    </g>
</svg>