<?xml version="1.0" encoding="UTF-8"?>
<svg width="72px" height="86px" viewBox="0 0 72 86" version="1.1" xmlns="http://www.w3.org/2000/svg" xmlns:xlink="http://www.w3.org/1999/xlink">
    <title>Group 13</title>
    <g id="Modules" stroke="none" stroke-width="1" fill="none" fill-rule="evenodd">
        <g id="Business-Page" transform="translate(-148.000000, -5766.000000)">
            <g id="Group-13" transform="translate(150.000000, 5776.000000)">
                <polygon id="Fill-1" fill="#F0F0F7" points="3.78966255 57.9575009 34 74.3952884 68 55.8954964 68 18.8950803 34 0.395288373 0 18.8950803 0 27.9477628 0 55.7465461"></polygon>
                <polygon id="Stroke-2" stroke="#9D9590" stroke-width="3" points="3.78966255 57.9575009 34 74.3952884 68 55.8954964 68 18.8950803 34 0.395288373 0 18.8950803 0 27.9477628 0 55.7465461"></polygon>
                <polyline id="Fill-4" fill="#F0F0F7" points="34 74.3952884 34 37.0616752 0 18.3952884"></polyline>
                <polyline id="Stroke-5" stroke="#9D9590" stroke-width="3" points="34 74.3952884 34 37.0616752 0 18.3952884"></polyline>
                <line x1="34" y1="36.3952884" x2="68" y2="18.3952884" id="Fill-7" fill="#F0F0F7"></line>
                <line x1="34" y1="36.3952884" x2="68" y2="18.3952884" id="Stroke-8" stroke="#9D9590" stroke-width="3"></line>
                <g id="Group-12" transform="translate(18.000000, 9.395288)">
                    <line x1="34" y1="18" x2="-2.95487329e-15" y2="0" id="Fill-10" fill="#F0F0F7"></line>
                    <line x1="34" y1="18" x2="-2.95487329e-15" y2="0" id="Stroke-11" stroke="#9D9590" stroke-width="3"></line>
                </g>
            </g>
        </g>
    </g>
</svg>