<?xml version="1.0" encoding="UTF-8"?>
<svg width="111px" height="71px" viewBox="0 0 111 71" version="1.1" xmlns="http://www.w3.org/2000/svg" xmlns:xlink="http://www.w3.org/1999/xlink">
    <title>Group 14</title>
    <defs>
        <polygon id="path-1" points="0 0 15 0 15 16 0 16"></polygon>
    </defs>
    <g id="Modules" stroke="none" stroke-width="1" fill="none" fill-rule="evenodd">
        <g id="Homepage" transform="translate(-441.000000, -5998.000000)">
            <g id="Group-14" transform="translate(442.000000, 6024.000000)">
                <g id="Group-3" transform="translate(7.814815, 28.333333)">
                    <mask id="mask-2" fill="white">
                        <use xlink:href="#path-1"></use>
                    </mask>
                    <g id="Clip-2"></g>
                    <path d="M11.1116316,11.4961429 C10.2359519,12.5247904 9.03730651,13.1295971 7.73508611,13.1962687 C7.62115359,13.2019834 7.50722108,13.2038883 7.39423015,13.201031 C6.09200975,13.171505 4.87829891,12.601939 3.97719629,11.5980552 C3.07609366,10.5941714 2.59588224,9.27597856 2.62412997,7.88635191 C2.6523777,6.49767771 3.18531822,5.2032962 4.12690926,4.2422727 C5.03931097,3.30982274 6.23607318,2.79645141 7.49686357,2.79645141 L7.60608813,2.79835631 C7.63433587,2.79835631 7.66164201,2.80311857 7.69083133,2.80407102 C10.2001714,2.90979313 12.2500151,5.06138094 12.3714804,7.74824645 C12.434567,9.13692065 11.9873112,10.4674953 11.1116316,11.4961429 M7.6625836,0.00195888466 C5.66546901,-0.0447112359 3.75968876,0.743918557 2.31340493,2.22117074 C0.866179505,3.69937538 0.045112122,5.68999889 0.00179893443,7.82634747 C-0.0415142532,9.95888625 0.6985763,11.9847505 2.0855399,13.5296267 C3.47250349,15.0754554 5.33873692,15.9517107 7.33867628,15.9983808 C7.39140538,15.9993333 7.44507607,16.0002857 7.49780517,16.0002857 C7.620212,16.0002857 7.74167724,15.9964759 7.86314249,15.9898088 C9.86402344,15.886944 11.7076587,14.9583039 13.0531923,13.376282 C14.3996675,11.7942602 15.0879705,9.74744203 14.9909866,7.6120459 C14.8017268,3.43459388 11.5824271,0.0924417715 7.6625836,0.00195888466" id="Fill-1" fill="#9D9590" mask="url(#mask-2)"></path>
                </g>
                <path d="M96.1053962,36.6168185 C96.0989573,36.7416473 96.0833199,36.8636174 96.0686024,36.9865404 C96.0621635,37.034185 96.0603238,37.0837353 96.0538849,37.1323328 C95.6979057,39.5040796 93.7735942,41.3898517 91.3755635,41.5327854 C91.313934,41.5308796 91.2532244,41.5213507 91.1906751,41.5175392 C91.0922519,41.509916 90.9929088,41.5051516 90.8954055,41.4918111 C90.8328562,41.484188 90.7721465,41.4689417 90.710517,41.4584599 C90.6157732,41.4413078 90.5201095,41.4270145 90.4272054,41.405098 C90.3646561,41.3898517 90.3039464,41.3688881 90.242317,41.351736 C90.1530922,41.326008 90.0620277,41.3040915 89.9746427,41.273599 C89.9120933,41.2526353 89.8523035,41.2240486 89.7915939,41.2002263 C89.7069683,41.167828 89.6214229,41.1373355 89.5395569,41.1001727 C89.4770076,41.071586 89.4181376,41.0372819 89.357428,41.0067894 C89.2792414,40.9667679 89.2001349,40.930558 89.1247077,40.886725 C89.0639981,40.8524209 89.0069678,40.8114466 88.9480979,40.7742838 C88.8754303,40.7285451 88.8018428,40.6856649 88.7319348,40.6361146 C88.6767442,40.5979989 88.6261528,40.5541659 88.5737218,40.5141445 C88.5028939,40.4598297 88.4311461,40.4083735 88.3630777,40.3502472 C88.3106467,40.3064142 88.2628149,40.2568638 88.2122235,40.2101721 C88.1487543,40.1510928 88.0825256,40.0939194 88.021816,40.0319814 C87.9730643,39.9824311 87.9298317,39.9290691 87.8829197,39.877613 C87.8249696,39.8128164 87.76426,39.7499256 87.7090694,39.6822703 C87.6676764,39.631767 87.6308827,39.5774522 87.5913295,39.5250432 C87.5361389,39.4526234 87.4791086,39.3811566 87.4275974,39.3049253 C87.3935632,39.2553749 87.3641283,39.2010601 87.3319338,39.149604 C87.2804225,39.0676553 87.2270717,38.9866595 87.1792398,38.9018522 C87.1507247,38.850396 87.1277286,38.7960812 87.1001333,38.7436722 C87.055061,38.6541004 87.008149,38.5664344 86.9676759,38.4749568 C86.94376,38.4215949 86.9253632,38.3653743 86.9042068,38.3110595 C86.8655734,38.2167232 86.8260201,38.1233399 86.7929058,38.0270979 C86.7763486,37.9756417 86.7643906,37.9213269 86.7487533,37.8698708 C86.7174786,37.7669585 86.6843643,37.6649991 86.6595285,37.5592282 C86.6521698,37.5268298 86.6475706,37.4925258 86.6402118,37.4591746 C86.5785823,37.1723542 86.5362696,36.8788637 86.5224719,36.57775 C86.5141933,36.4005122 86.5141933,36.2242273 86.5233918,36.0498481 C86.5289108,35.9507474 86.5427085,35.8535525 86.5537466,35.7563576 C86.5611053,35.682032 86.5647847,35.6067536 86.5758228,35.5343339 C86.9318021,33.1616342 88.8561136,31.2758621 91.2532244,31.1338812 C91.3157737,31.135787 91.3764834,31.1453159 91.4381128,31.1491275 C91.536536,31.1567506 91.6358791,31.1615151 91.7333824,31.1748556 C91.7959318,31.1824787 91.8557216,31.197725 91.917351,31.2082068 C92.0130147,31.2253588 92.1086784,31.2396522 92.2015825,31.2615687 C92.2641318,31.276815 92.3230018,31.2968257 92.3846313,31.3149306 C92.4747759,31.3397058 92.5658403,31.3625752 92.6541453,31.3930677 C92.7157747,31.4140313 92.7746447,31.4416652 92.8353543,31.4654875 C92.9208997,31.4978858 93.0064451,31.5283783 93.0901508,31.566494 C93.1499406,31.5941278 93.2078907,31.627479 93.2667607,31.6579715 C93.346787,31.697993 93.4277332,31.7351557 93.505,31.7799416 C93.5666295,31.8151986 93.6254995,31.8571258 93.6852893,31.8952415 C93.7561172,31.9400274 93.8287848,31.9819546 93.897773,32.0305521 C93.9548033,32.0705735 94.0072343,32.1163123 94.0624249,32.1582395 C94.1304933,32.2106486 94.2004013,32.2601989 94.2657102,32.3164195 C94.3181412,32.3602525 94.3659731,32.4098029 94.4165644,32.4564946 C94.4809534,32.5155738 94.5471821,32.5727473 94.6078918,32.6346852 C94.6557236,32.6842356 94.6998761,32.7375975 94.7458682,32.7890537 C94.8047382,32.8538503 94.8654478,32.9167411 94.9206384,32.9843964 C94.9620313,33.0348996 94.998825,33.0892145 95.0374584,33.1416235 C95.0935689,33.2140432 95.1505991,33.2855101 95.2021103,33.3617414 C95.2361445,33.4122447 95.2655795,33.4656066 95.297774,33.5170627 C95.3492852,33.5990114 95.4026361,33.6800071 95.4495481,33.7648145 C95.4753037,33.8115062 95.4964601,33.8610565 95.5212959,33.9087011 C95.5691277,34.0020845 95.6187992,34.0954678 95.6620318,34.1917098 C95.6767493,34.225061 95.6877874,34.260318 95.7015851,34.2936692 C95.7484971,34.4070633 95.7963289,34.5214103 95.8358822,34.6395688 C95.8460004,34.6700613 95.8524393,34.7015068 95.8616378,34.7310464 C95.901191,34.8549223 95.9389046,34.9797511 95.9692594,35.1074385 C95.977538,35.1407897 95.9812173,35.1750938 95.9885761,35.208445 C96.0502056,35.4943124 96.0934382,35.787803 96.1072358,36.0889167 C96.1155144,36.2661545 96.1145946,36.4424394 96.1053962,36.6168185 M91.2707014,28.3342862 L91.2164307,28.3333333 L91.1741179,28.3352391 C86.9189243,28.5448752 83.6212871,32.3021261 83.8236526,36.7111548 C84.0158998,40.8857721 87.3254949,44.2332797 91.3590063,44.3323804 L91.4123572,44.3333333 L91.45467,44.3314276 C95.7098637,44.1208385 99.0075008,40.3645405 98.8060552,35.9555119 C98.613808,31.7808945 95.3042129,28.4333869 91.2707014,28.3342862" id="Fill-4" fill="#9D9590"></path>
                <path d="M74.5726986,16.0712475 C74.4470787,16.3050675 74.2859784,16.5210537 74.0941923,16.7122709 C73.6540433,17.1511787 73.0844386,17.4176939 72.4783946,17.4721858 L72.4783946,17.4830842 L72.1446869,17.4870472 L72.1446869,17.4830842 L56.6167272,17.4830842 L56.6243986,16.0544045 L55.4794358,13.0781537 C55.3979267,12.9424192 55.2042227,12.8780196 55.0402456,12.9543084 L54.8772275,13.0167264 C54.7717451,13.0484308 54.7237986,13.1177842 54.7027022,13.1564239 C54.6844825,13.1901099 54.6566735,13.2624355 54.6748932,13.3506134 L56.2465801,17.4830842 L48.3392401,17.4830842 C46.8768713,17.4830842 45.6877976,16.2535478 45.6877976,14.7436256 L45.6877976,7.10286447 C45.6877976,5.59294227 46.8768713,4.36340589 48.3392401,4.36340589 L64.9690108,4.36340589 C65.1492897,4.36340589 65.3266919,4.38322114 65.5002583,4.41987936 C65.5098476,4.42186089 65.5194369,4.42483317 65.5299851,4.42780546 C65.6057406,4.44464842 65.6814961,4.46347291 65.7562927,4.48725122 C65.7879374,4.49814961 65.8195821,4.51202028 65.8512268,4.52390943 C65.903009,4.54174316 65.9538323,4.55957689 66.0036967,4.58137366 C66.0199985,4.588309 66.0363003,4.59821663 66.0526022,4.60515197 C66.1158916,4.63487484 66.1801399,4.66558848 66.2405525,4.69927441 C66.2635668,4.71215433 66.2846633,4.72800653 66.3067187,4.74088644 C66.3604188,4.77358161 66.4141189,4.80528601 66.4649422,4.84194423 C66.4985048,4.86473177 66.5291906,4.89247312 66.5608353,4.91724218 C66.5991925,4.94696506 66.6385086,4.97470641 66.6759069,5.00641082 C66.7142641,5.04108751 66.7507035,5.07873649 66.7871428,5.1153947 C66.8149518,5.14115453 66.8427608,5.16592359 66.8696108,5.19366495 L66.8696108,5.19366495 L66.8696108,5.19366495 L74.1507692,12.8136201 C74.3368017,13.0137541 74.4911895,13.2366757 74.6110558,13.4764402 C74.8105133,13.8757176 74.9121599,14.3215607 74.9054474,14.7812746 C74.897776,15.2409884 74.7827043,15.6818778 74.5726986,16.0712475 L74.5726986,16.0712475 Z M105.840542,23.8705306 L101.60111,19.3833668 L93.6918525,16.9252848 L87.6333304,16.9252848 L73.0192314,2.33333333 L15.475737,2.33333333 L9.90339258,6.5034531 L3.79212926,18.6155258 L1.81481481,24.6195472 L1.81481481,33.1529854 L3.97144924,35.2851065 L6.37165199,30.2569863 L10.6110832,25.8272868 L15.1170971,24.6195472 L20.076685,27.0677215 L25.20025,36.330361 L79.5524241,36.3333333 L80.9610928,29.8913949 L88.6104804,23.8705306 L92.1211246,24.6185564 L99.1357003,27.0677215 L101.062191,32.1493429 L101.062191,35.2851065 L104.297623,35.2851065 L106.814815,33.1519946 L105.840542,23.8705306 Z" id="Fill-6" fill="#F0F0F7"></path>
                <path d="M59.1011045,15.4467346 L58.1036096,12.8320121 L58.0550674,12.7191393 C57.3193197,11.2115515 55.5594265,10.5333333 54.0593768,11.1673839 C53.3103038,11.4166855 52.6887731,11.9466969 52.3109053,12.6592676 C51.9320857,13.3718384 51.8340494,14.197282 52.03964,14.998188 L52.1985919,15.4408456 L48.6102753,15.4310306 L48.6159861,8.21600604 L64.8890497,8.22189505 L71.7715743,15.4467346 L59.1011045,15.4467346 Z M74.0654319,13.7035863 L66.8393046,6.15583239 L66.8393046,6.15583239 L66.8383528,6.15485089 C66.812654,6.12736882 66.7840997,6.10381276 66.7574491,6.07731219 C66.7203286,6.0409966 66.6851117,6.00369951 66.6460876,5.97032843 C66.6099188,5.93793884 66.5708947,5.91045678 66.5328224,5.8810117 C66.5004609,5.85647414 66.470003,5.82997357 66.4376416,5.80641752 C66.3871957,5.77108343 66.3338945,5.73869385 66.2805932,5.70728577 C66.2587016,5.69354473 66.2377619,5.6788222 66.2149185,5.66606267 C66.1540027,5.63171008 66.0911834,5.6012835 66.0283641,5.57281993 C66.0112315,5.56496791 65.9960026,5.55515289 65.9798219,5.54828237 C65.9303278,5.52668932 65.8789302,5.51000378 65.8284844,5.49135523 C65.7970747,5.4795772 65.765665,5.46583616 65.7333036,5.45602114 C65.6600143,5.43148358 65.5848215,5.41283503 65.5086768,5.39614949 C65.4991588,5.39418649 65.4896407,5.39026048 65.4791708,5.38829747 C65.3078453,5.35198188 65.130809,5.33333333 64.9528209,5.33333333 L48.4465643,5.33333333 C46.9950569,5.33333333 45.8148148,6.55039638 45.8148148,8.04718762 L45.8148148,15.615553 C45.8148148,17.1113628 46.9950569,18.3294073 48.4465643,18.3294073 L56.2951741,18.3294073 L54.7351606,14.2355606 C54.7170763,14.1482069 54.7446787,14.0775387 54.762763,14.0431861 C54.782751,14.0049075 54.8312932,13.9371838 54.9359921,13.9047943 L55.0968477,13.8439411 C55.2596069,13.7673839 55.4528239,13.8321631 55.5327758,13.9656474 L56.6701865,16.9140808 L56.6625721,18.3294073 L72.0742493,18.3294073 L72.0742493,18.3333333 L72.4064304,18.3294073 L72.4064304,18.3195923 C73.0079731,18.2656097 73.5733471,18.000604 74.0102271,17.5657984 C74.2005887,17.3763684 74.3595406,17.1624009 74.4851793,16.9307663 C74.6936253,16.5450359 74.8078423,16.1082673 74.8145049,15.6528501 C74.8211676,15.197433 74.7202759,14.7557569 74.5232516,14.3602114 C74.4042756,14.1226878 74.2510345,13.9018498 74.0654319,13.7035863 L74.0654319,13.7035863 Z" id="Fill-8" fill="#9D9590"></path>
                <path d="M105.991758,31.7944942 C105.991758,33.6254116 105.913901,35.3941468 105.348713,35.9399674 C104.845042,36.426567 103.446489,36.4620996 102.231527,36.427554 C102.159437,31.9395858 100.382171,28.5136483 97.0852402,26.511977 C94.9513669,25.1903606 92.4906842,24.4797081 89.9627172,24.4570067 C89.4100248,24.472799 88.8630996,24.53202 88.3238641,24.6326958 C87.9653349,24.6988259 87.6096894,24.7837094 87.2607723,24.8863593 C87.0858331,24.9376842 86.9128164,24.9929571 86.7407608,25.0531652 C85.0230889,25.6522848 83.4601709,26.681744 82.2288684,28.0586333 C81.1542421,29.2618075 79.9037155,31.2220241 79.4096565,34.1376736 C79.2962344,34.8108195 79.2222217,35.5343033 79.200114,36.311086 L46.3855645,36.311086 L46.3855645,20.7211457 L43.563469,20.7211457 L43.563469,36.311086 L26.079165,36.311086 C25.9340232,33.2207344 24.9362932,30.4669558 23.1907464,28.3389462 C21.1587608,25.8615325 18.2395837,24.4155519 14.9705283,24.2655253 C8.76403289,23.9822513 4.29154983,28.3922452 3.23134162,35.7998109 C3.18712623,35.7573692 3.14579445,35.7129534 3.10542388,35.6665636 C2.78149807,35.2865619 2.62193817,34.7999623 2.65365791,34.2975704 L2.65846393,34.219596 L2.65654152,34.159388 C2.4662231,27.3006039 3.70521528,21.584786 6.44368599,16.6862185 C7.07615835,15.5511484 7.75861331,14.4052212 8.41799938,13.2968006 L8.43818467,13.262255 C9.48493602,11.504377 10.5682131,9.68530386 11.509232,7.81786688 C12.9029781,5.09369879 15.1060581,3.73062772 18.4414366,3.52927616 C21.5884191,3.33187268 37.391577,3.24304111 41.812155,3.24304111 C44.293023,3.24304111 46.7729298,3.25291128 49.2537978,3.26179444 L49.4268145,3.26278146 C54.3885505,3.28153479 59.5184972,3.30127514 64.615763,3.24205409 C67.2706089,3.11670288 69.8889291,4.15701925 71.7969194,6.09453446 C75.2610993,9.48691335 79.1501314,13.0796568 83.6918212,17.0810254 L83.7802519,17.1520907 C84.9663779,18.0305362 86.4004945,18.5812919 87.8096199,18.7026951 C89.1370428,18.8852933 90.4692718,18.9780729 91.7572854,19.0678915 C93.1885185,19.1675803 94.5524672,19.2702301 95.898153,19.4765167 C96.1307645,19.5120494 96.3643371,19.5446209 96.5950261,19.5870627 C102.453566,20.6589636 105.965806,25.0600743 105.991758,31.3611936 L105.991758,31.7944942 Z M97.0910074,16.7335953 C95.3723744,16.4147887 93.6316336,16.2933855 91.938953,16.1749434 C90.696116,16.0880859 89.4119472,15.9982673 88.116244,15.8215912 C87.1646519,15.7386817 86.2495855,15.3961867 85.4835057,14.8395089 C81.0033331,10.8914392 77.1690896,7.35002062 73.7645044,4.01587576 C71.3163173,1.52957886 67.9472967,0.192170243 64.5379055,0.345157944 C59.5636738,0.401417937 54.5000502,0.382664606 49.6027149,0.364898292 L49.3979784,0.363911275 C46.8700114,0.354041101 44.3410832,0.345157944 41.812155,0.345157944 C37.3252539,0.345157944 21.4701909,0.43497653 18.2722646,0.635341067 C13.9737595,0.895913668 10.8565744,2.86106537 9.00625634,6.47749722 C8.10945284,8.25708964 7.05405065,10.0297729 6.02940699,11.7501443 C5.35464166,12.8842273 4.65680742,14.055817 3.99453774,15.245173 C0.997503109,20.6056647 -0.363562011,26.8011731 -0.166515154,34.1712322 C-0.230915834,35.4227703 0.176634739,36.6318666 0.981162638,37.5754553 C1.8010698,38.5377973 2.93625194,39.1142155 4.17716654,39.199099 C4.26175251,39.2050211 4.34633847,39.2089691 4.43092444,39.2099562 L5.77468789,39.2287095 L5.85927385,37.8518202 C6.27835888,31.0226466 9.72812068,26.9284983 14.8446105,27.1614344 C17.3168277,27.2749414 19.5141404,28.3567125 21.032843,30.2073702 C22.5976834,32.1142879 23.3887545,34.7742998 23.2609143,37.6958714 L23.1945912,39.2099562 L82.127942,39.2099562 L82.0414336,37.6771181 C81.864572,34.5255714 82.6489146,31.8774037 84.3098754,30.0188499 C85.7651386,28.3892841 87.8374948,27.419046 89.9896309,27.3558769 C91.97644,27.3736432 93.9296069,27.9421652 95.6376667,29.0002479 C98.3751762,30.6633723 99.6343537,33.595801 99.3786734,37.7165988 L99.2892814,39.1665274 L100.70129,39.255359 C101.552917,39.3086579 102.223838,39.3333333 102.812095,39.3333333 C105.044972,39.3333333 106.340675,38.9612278 107.282655,38.0511977 C108.570669,36.8085428 108.814815,34.8937289 108.814815,31.7944942 L108.814815,31.3552715 C108.783095,23.6535745 104.290427,18.0502766 97.0910074,16.7335953 L97.0910074,16.7335953 Z" id="Fill-10" fill="#9D9590"></path>
                <polygon id="Fill-12" fill="#9D9590" points="48.8148148 24.0266233 56.4104326 25.3333333 56.8148148 22.6409721 49.2200648 21.3333333"></polygon>
            </g>
        </g>
    </g>
</svg>