<?xml version="1.0" encoding="UTF-8"?>
<svg width="66px" height="71px" viewBox="0 0 66 71" version="1.1" xmlns="http://www.w3.org/2000/svg" xmlns:xlink="http://www.w3.org/1999/xlink">
    <title>Group 7</title>
    <defs>
        <polygon id="path-1" points="0 0 65 0 65 70 0 70"></polygon>
    </defs>
    <g id="Modules" stroke="none" stroke-width="1" fill="none" fill-rule="evenodd">
        <g id="Homepage" transform="translate(-146.000000, -5732.000000)">
            <g id="Group-7" transform="translate(146.000000, 5732.000000)">
                <polygon id="Fill-1" fill="#F0F0F7" points="1.53333333 33 17.5333333 33 17.5333333 14 1.53333333 14"></polygon>
                <polygon id="Fill-2" fill="#F0F0F7" points="32.5333333 63 24.9638153 63 23.3621693 59.7205713 10.5333333 59 10.9964179 55 32.5333333 55"></polygon>
                <polygon id="Fill-3" fill="#F0F0F7" points="50.5333333 40 59.5333333 40 59.5333333 28 50.5333333 28"></polygon>
                <g id="Group-6" transform="translate(0.533333, 0.000000)">
                    <mask id="mask-2" fill="white">
                        <use xlink:href="#path-1"></use>
                    </mask>
                    <g id="Clip-5"></g>
                    <path d="M59.1652019,64.1693361 C58.6674024,64.6666724 58.1289838,65.1078857 57.55686,65.4895223 C55.8396245,66.6361588 53.8207709,67.2526486 51.7042587,67.2526486 C45.8888195,67.2526486 41.1579955,62.5253633 41.1579955,56.7153354 C41.1579955,52.8583887 43.2529018,49.3381801 46.6398399,47.4783495 L50.4658095,57.1936762 C50.6706333,57.7048274 51.1684328,58.0476096 51.7042587,58.0476096 L51.8183377,58.0450193 C52.418117,57.9457247 52.8640624,57.5321412 52.9530787,56.9976774 L55.0255149,46.7245741 C59.3561979,48.1811824 62.2505219,52.1693706 62.2505219,56.7153354 C62.2505219,59.5335745 61.1546715,62.1808543 59.1652019,64.1693361 L59.1652019,64.1693361 Z M52.4423156,46.1788857 L51.2401643,52.0415828 L49.1167382,46.5233947 C50.0276422,46.2919951 50.9031126,46.1788857 51.786361,46.1788857 L52.4423156,46.1788857 Z M53.4180373,41.6260135 L53.0153036,43.5695969 C52.5745436,43.5134738 52.142426,43.5134738 51.786361,43.5134738 C50.4649453,43.5134738 49.2748933,43.6844332 48.1557086,44.0358497 L47.191222,41.6260135 L53.4180373,41.6260135 Z M58.5628299,29.8315446 L57.3926553,39.0417642 L51.7146295,39.0417642 L50.6213719,29.8315446 L58.5628299,29.8315446 Z M42.9037508,39.7299188 L34.7445055,41.4913182 L34.7445055,40.2980564 C34.7445055,37.3926108 32.1561208,35.7874923 29.7561394,35.2607994 L26.2421587,34.0338638 L26.2421587,26.649801 L27.4806079,27.8870977 C27.6612331,28.0666914 27.8867985,28.1953427 28.134834,28.2575097 L37.148808,30.5084746 L39.2030953,30.9885423 L39.2030953,29.1390728 L43.0636343,29.1770638 L42.9037508,39.7299188 Z M35.2526758,50.2180164 C35.2077356,50.1990209 35.1671165,50.1843425 35.1239047,50.1670739 C35.091928,50.1541225 35.0573586,50.1394441 35.0262462,50.1273561 C34.9294518,50.0919554 34.8361144,50.0582816 34.7445055,50.0315152 L34.7445055,44.3052402 L41.5840635,42.8693542 L35.2526758,50.2180164 Z M34.88624,54.66555 L34.3763412,54.66555 L29.8866389,54.66555 L29.8866389,52.6278526 L30.1848001,52.6278526 L33.3349377,52.6278526 C33.4144474,52.6278526 33.4922285,52.6321697 33.5682812,52.6399406 L33.5691455,52.6399406 C34.2925104,52.7150591 34.9363657,53.1415941 35.2907022,53.7805331 C35.4419433,54.0533773 35.5335523,54.3555782 35.5612078,54.66555 L34.88624,54.66555 Z M32.2278523,59.7667009 C32.1742697,60.035228 32.0783396,60.2821693 31.9028998,60.6025022 C31.5355998,61.3795902 30.67655,62.1955326 29.6429246,62.1609954 C29.5677361,62.1584051 29.4960046,62.1489073 29.4260015,62.1350924 L29.4009387,62.1299118 L29.3750116,62.1316387 C28.5963356,62.1799908 27.8824773,61.946001 27.2464001,61.4383035 C26.6587201,60.9979537 26.2620361,60.335702 26.1038811,59.5612043 C26.1038811,59.4558657 26.0796825,59.3574346 26.0580766,59.270228 C26.0399277,59.1985633 26.022643,59.1312156 26.022643,59.0733657 C26.022643,58.3135464 25.449655,57.7410915 24.6891279,57.7410915 L11.9641276,57.8205272 C12.4869899,56.7300137 13.5785191,56.0159562 14.7616572,56.0159562 L27.0675034,56.0159562 L27.0675034,56.0738061 C27.0675034,56.3181571 27.1323211,56.5538738 27.2610921,56.7757756 L27.3293667,56.8940656 L27.4641874,56.8698896 C27.5212269,56.8595284 27.5808592,56.8517575 27.6456768,56.8517575 L31.3809017,56.8517575 L31.3834944,56.8517575 L31.3860871,56.8534844 L31.3860871,56.8534844 C31.4051003,56.8733433 31.4241135,56.8983828 31.4448551,56.9260126 C31.5070801,57.0071751 31.5900467,57.115104 31.7188177,57.1919494 C32.2650144,57.9111875 32.4456396,58.8221073 32.2278523,59.7667009 L32.2278523,59.7667009 Z M17.9351292,66.1560911 C16.5117337,66.8623777 14.9310473,67.2526486 13.2959142,67.2526486 L13.2959142,67.2526486 C7.48047493,67.2526486 2.74878675,62.5253633 2.74878675,56.7153354 C2.74878675,52.1615998 5.75805401,48.0732535 10.0896013,46.7098958 L12.8750316,53.6674236 C11.2978022,54.2105218 10.0265121,55.4944438 9.45179562,57.1349629 C9.41636197,57.2282135 9.3878422,57.3231909 9.36537209,57.4181683 C9.21413091,58.0622879 9.35932244,58.7167687 9.76378455,59.2175587 C9.77847655,59.2356908 9.79057585,59.2564131 9.80613208,59.2745452 C9.84070149,59.3228973 9.88132055,59.3669323 9.9193469,59.4126942 C9.94354549,59.4411874 9.96515137,59.4714075 9.99107843,59.4990373 C10.0325617,59.5447991 10.0792304,59.5853804 10.1250349,59.6276885 C10.1518262,59.6535914 10.176889,59.6812212 10.2054088,59.7045339 C10.2546702,59.7477054 10.3082528,59.784833 10.3609711,59.8236874 C10.3886267,59.8435463 10.4145537,59.8659955 10.4430735,59.884991 C10.4992488,59.9229819 10.558881,59.9549289 10.617649,59.9886027 C10.6453045,60.0041445 10.6712316,60.0222765 10.6997514,60.0369549 C10.7585194,60.0680384 10.8198801,60.0930779 10.8812408,60.1189808 C10.911489,60.1319323 10.9400088,60.147474 10.9711212,60.1595621 C11.0316177,60.1828747 11.0947069,60.2001433 11.1569318,60.2191388 C11.1889085,60.2286366 11.220021,60.2407246 11.2528619,60.2493589 C11.322865,60.267491 11.3928681,60.2787156 11.4637354,60.2899402 C11.4896624,60.2942573 11.5147252,60.3020282 11.5406523,60.3054819 C11.6374467,60.31757 11.734241,60.3244774 11.8310354,60.3244774 L23.2665966,60.3244774 C22.2433421,62.9208147 20.307455,64.9783711 17.9351292,66.1560911 L17.9351292,66.1560911 Z M23.2786959,53.2693819 L15.5446544,53.2693819 L12.7670022,46.1788857 L13.2959142,46.1788857 C17.8175932,46.1788857 21.7956682,49.0169837 23.2786959,53.2693819 L23.2786959,53.2693819 Z M19.6048317,43.1706917 L24.5344298,45.5563518 L27.0675034,52.0459 L27.0675034,53.3505444 L25.9794312,53.3505444 C24.4894896,47.5983664 19.2962997,43.5946364 13.2959142,43.5946364 C12.7618168,43.5946364 12.2277193,43.6645743 11.7083139,43.7379659 L11.4723777,43.1706917 L19.6048317,43.1706917 Z M27.0675034,42.8641737 L27.0675034,43.1482425 L26.4971081,43.2717131 L26.2170959,42.5740608 L27.0675034,42.8641737 Z M18.9549268,36.4652858 L18.9549268,35.9653591 L18.9549268,34.4439935 L22.4533512,35.6277576 L22.4533512,35.6277576 L26.9249046,37.1404889 L26.9249046,37.1404889 L27.0484902,37.182797 L27.7856829,37.4323286 L27.7856829,37.4323286 L28.0440893,37.5195351 L28.0440893,37.5195351 L29.6290968,38.0557258 L29.6403319,38.0591796 C30.1683796,38.2033726 30.9012511,38.4839877 31.3981864,39.0055001 C31.7482017,39.3733217 31.9262342,39.808491 31.9262342,40.2980564 L31.9262342,42.0991737 L31.9262342,42.4972154 L31.9262342,44.4986487 L31.9262342,44.8966905 L31.9262342,49.8113403 L29.8866389,49.8113403 L29.8866389,45.3240889 L29.8866389,44.9269106 L29.8866389,42.9375653 L29.8866389,42.5395236 L29.8866389,41.5111771 C29.8866389,41.5042697 29.8849105,41.4973622 29.8849105,41.4904548 L29.9220726,41.4999525 L29.8451556,41.1882539 C29.8451556,41.1882539 29.8451556,41.1882539 29.8451556,41.1882539 L29.8166359,41.074281 L29.8036723,41.0708273 C29.6118121,40.5484514 29.089814,40.2997833 28.5427531,40.115009 L28.3016314,40.0234853 L28.3016314,40.0234853 L24.1429312,38.4399527 L24.1429312,38.4399527 L18.9549268,36.4652858 Z M18.9549268,19.6102472 C18.9549268,18.3798579 19.9574397,17.3782778 21.188975,17.3782778 L22.5639734,17.3782778 C23.5889564,17.3782778 24.5525787,17.8307157 25.2085333,18.6190283 L29.8235497,24.1518948 C29.8658973,24.2019738 29.9108375,24.2494625 29.9592347,24.2926341 C30.103562,24.4238756 30.2738163,24.524897 30.4604912,24.5870641 L36.784965,26.6903822 L36.784965,27.5140955 L29.192658,25.6154105 L25.8290543,22.2549367 C25.563734,21.9898633 25.2102618,21.84308 24.8334552,21.84308 C24.0565077,21.84308 23.4238875,22.4742482 23.4238875,23.2504727 L23.4238875,33.2438243 L18.9549268,31.6093492 L18.9549268,19.6102472 Z M25.8532528,9.54264054 L25.8532528,12.3289327 C25.8532528,13.5601855 24.8507399,14.5617655 23.6183404,14.5617655 L21.188975,14.5617655 C21.0645251,14.5617655 20.9452607,14.5393163 20.8346386,14.4987351 C20.5036364,14.3752644 20.2538724,14.086015 20.1864621,13.7320083 C21.7006023,13.6491189 22.9831275,12.6855298 23.5301884,11.3472115 C23.712542,10.9016811 23.8127933,10.4129791 23.8127933,9.90269131 L23.8127933,9.88196897 L25.8532528,9.54264054 Z M18.9549268,5.04848166 C18.9549268,3.8172289 19.9574397,2.81651226 21.188975,2.81651226 L26.0477058,2.81651226 C27.2801053,2.81651226 28.281754,3.8172289 28.281754,5.04848166 L28.281754,6.28318813 L22.1716105,7.30030997 C21.4897289,7.41428288 20.9945221,7.9979623 20.9945221,8.68870718 L20.9945221,9.90269131 C20.9945221,10.4639215 20.5364774,10.92154 19.9747244,10.92154 C19.4121073,10.92154 18.9549268,10.4639215 18.9549268,9.90269131 L18.9549268,5.04848166 Z M15.2093311,31.8390219 L2.94496816,31.8390219 L2.94496816,16.473402 L15.2093311,16.473402 L15.2093311,31.8390219 Z M55.5933175,44.1420517 L56.0945739,41.7080394 L58.5394956,41.7080394 C59.1358179,41.7080394 59.6552233,41.3048171 59.8721464,40.6451557 L61.4951802,28.8714092 C61.5945673,28.4733675 61.4874021,28.0796429 61.2177607,27.8128427 C60.9437981,27.4484747 60.5713127,27.2472953 60.1668506,27.2472953 L49.0190797,27.2472953 C48.6578293,27.2472953 48.2810227,27.4165278 47.9863185,27.7109578 C47.6993924,27.9976169 47.591363,28.3913415 47.6864288,28.7686609 L49.0406855,39.0417642 L46.1212987,39.0417642 L46.1238915,27.4398404 L46.1100637,27.3673122 C45.9052399,26.8570244 45.4074404,26.5133789 44.8724788,26.5133789 L39.2030953,26.4719342 L39.2030953,26.4719342 L39.2030953,24.8927187 L31.7378309,22.0399423 L27.3743069,16.8084133 C27.198003,16.6011898 27.007007,16.4051909 26.8039117,16.2212801 C27.9723578,15.2758231 28.6663387,13.8390737 28.6715241,12.3289327 L28.6715241,9.07207059 L29.923801,8.8639837 C30.6056827,8.75001079 31.1008895,8.16546794 31.1008895,7.47558649 L31.1008895,5.04848166 C31.1008895,2.26477978 28.8340003,0 26.0477058,0 L21.188975,0 C18.4026805,0 16.1357913,2.26477978 16.1357913,5.04848166 L16.1357913,9.90269131 C16.1392482,10.9569407 16.5808725,11.9654282 17.3509061,12.682076 L17.3509061,13.5437803 C17.3509061,13.5575952 17.3526346,13.5722735 17.3526346,13.5860884 L17.3016447,13.535146 L17.3267075,13.6862464 C17.1279334,13.5886787 16.9101461,13.5308288 16.681988,13.5308288 L1.47231123,13.5308288 C0.660794299,13.5308288 -0.000345694114,14.1913536 -0.000345694114,15.0021154 L-0.000345694114,33.3103085 C-0.000345694114,34.1210703 0.660794299,34.7807317 1.47231123,34.7807317 L5.37001237,34.7807317 L16.241228,34.6935251 L16.241228,34.6943886 L16.241228,39.1652348 L22.9122602,41.4446929 L23.1093058,41.9463464 L20.2175746,40.6071648 C20.013615,40.5061433 19.8165694,40.5061433 19.6428581,40.5061433 L4.83245802,40.5061433 C4.07193097,40.5061433 3.49894297,41.0785981 3.49894297,41.8384175 C3.49894297,42.5982369 4.07193097,43.1715551 4.83245802,43.1715551 L8.60570927,43.1715551 L9.05165468,44.3173282 C3.71154485,46.055415 -0.000345694114,51.156566 -0.000345694114,56.7973614 C-0.000345694114,64.076949 5.92830836,70.0000863 13.214676,70.0000863 C18.0803207,70.0000863 22.6279268,67.2647366 24.8870378,63.0071578 C25.0832192,63.2359671 25.2897714,63.4267854 25.5403997,63.6132865 C26.5195783,64.4292289 27.7770406,64.878213 29.0829001,64.878213 C29.4484716,64.878213 29.8045366,64.8169094 30.2159126,64.7469715 L30.4466634,64.7055268 C30.5123453,64.6830776 30.702477,64.6407695 30.893473,64.5967345 C31.1000253,64.5492458 31.3074417,64.5008937 31.3800375,64.4767176 L31.3955937,64.477581 L31.4215208,64.4577221 C31.440534,64.4456341 31.598689,64.3549738 31.7559798,64.2634501 C32.1042667,64.0614072 32.1042667,64.0614072 32.1137733,64.0544998 L32.3436598,63.8861307 C32.718738,63.6115596 32.7256518,63.606379 33.0436904,63.3309445 L33.4006196,63.017519 L33.3937057,63.0062944 C34.0911436,62.2715145 34.5656088,61.3744096 34.8041377,60.3400192 C35.091928,59.1925192 34.992541,57.99235 34.5293109,56.8517575 L34.5422744,56.8517575 L38.6422066,56.8517575 L38.0562551,53.1528187 C37.8825438,52.6736144 37.6293228,52.2229034 37.3095558,51.8058662 L44.8906277,42.8598565 L45.7600484,44.9985753 C41.4362793,47.2339985 38.6517132,51.7816901 38.6517132,56.6350363 C38.6517132,63.9146239 44.5803672,69.8377613 51.8667349,69.8377613 C59.1081624,69.8377613 65.0005185,63.9146239 65.0005185,56.632446 C64.9210089,50.9070344 61.0613341,45.7972491 55.5933175,44.1420517 L55.5933175,44.1420517 Z" id="Fill-4" fill="#9D9590" mask="url(#mask-2)"></path>
                </g>
            </g>
        </g>
    </g>
</svg>