<?xml version="1.0" encoding="UTF-8"?>
<svg width="99px" height="86px" viewBox="0 0 99 86" version="1.1" xmlns="http://www.w3.org/2000/svg" xmlns:xlink="http://www.w3.org/1999/xlink">
    <title>Group 17</title>
    <g id="Modules" stroke="none" stroke-width="1" fill="none" fill-rule="evenodd">
        <g id="Business-Page" transform="translate(-462.000000, -6069.000000)">
            <g id="Group-17" transform="translate(466.000000, 6089.000000)">
                <polygon id="Fill-1" fill="#F0F0F7" points="46.0446268 58.7934168 21.6046761 42.2949032 -0.0980334511 61.256587 10.9360265 28.775323 26.1681351 15.256587 46.0446268 31.7542565 67.119965 15.256587 82.3420623 28.775323 91.9019665 61.256587 70.8124457 42.2949032"></polygon>
                <polygon id="Stroke-2" stroke="#9D9590" stroke-width="3" points="46.0446268 58.7934168 21.6046761 42.2949032 -0.0980334511 61.256587 10.9360265 28.775323 26.1681351 15.256587 46.0446268 31.7542565 67.119965 15.256587 82.3420623 28.775323 91.9019665 61.256587 70.8124457 42.2949032"></polygon>
                <g id="Group-6" transform="translate(21.901967, 15.256587)">
                    <line x1="5" y1="5.98921512e-15" x2="0" y2="27" id="Fill-4" fill="#F0F0F7"></line>
                    <line x1="5" y1="5.98921512e-15" x2="0" y2="27" id="Stroke-5" stroke="#9D9590" stroke-width="3"></line>
                </g>
                <g id="Group-9" transform="translate(66.901967, 16.256587)">
                    <line x1="0" y1="0" x2="5" y2="27" id="Fill-7" fill="#F0F0F7"></line>
                    <line x1="0" y1="0" x2="5" y2="27" id="Stroke-8" stroke="#9D9590" stroke-width="3"></line>
                </g>
                <path d="M46.4019665,58.256587 L46.4019665,31.256587 L46.4019665,58.256587 Z" id="Fill-10" fill="#F0F0F7"></path>
                <line x1="46.4019665" y1="31.256587" x2="46.4019665" y2="58.256587" id="Stroke-11" stroke="#9D9590" stroke-width="3"></line>
                <g id="Group-16" transform="translate(17.901967, 0.256587)" fill="#9D9590">
                    <path d="M10.8459199,14.6669491 C8.84849295,14.6669491 7.23033483,13.025803 7.23033483,11 C7.23033483,8.97419703 8.84849295,7.33389817 10.8459199,7.33389817 C12.8433469,7.33389817 14.461505,8.97419703 14.461505,11 C14.461505,13.025803 12.8433469,14.6669491 10.8459199,14.6669491 M10.8459199,0 C5.1552162,0 2.96791559e-15,4.68112147 2.96791559e-15,10.4543634 C2.96791559e-15,16.2250635 4.70326806,23.1166911 10.8459199,33 C16.9885718,23.1166911 21.6918399,16.2250635 21.6918399,10.4543634 C21.6918399,4.68112147 16.5382945,0 10.8459199,0" id="Fill-12"></path>
                    <path d="M44.1540801,14.6669491 C42.1566531,14.6669491 40.538495,13.025803 40.538495,11 C40.538495,8.97419703 42.1566531,7.33389817 44.1540801,7.33389817 C46.1515071,7.33389817 47.7696652,8.97419703 47.7696652,11 C47.7696652,13.025803 46.1515071,14.6669491 44.1540801,14.6669491 M44.1540801,0 C38.4633763,0 33.3081601,4.68112147 33.3081601,10.4543634 C33.3081601,16.2250635 38.0114282,23.1166911 44.1540801,33 C50.2967319,23.1166911 55,16.2250635 55,10.4543634 C55,4.68112147 49.8464546,0 44.1540801,0" id="Fill-14"></path>
                </g>
            </g>
        </g>
    </g>
</svg>