<?xml version="1.0" encoding="UTF-8"?>
<svg width="177px" height="49px" viewBox="0 0 177 49" version="1.1" xmlns="http://www.w3.org/2000/svg" xmlns:xlink="http://www.w3.org/1999/xlink">
    <title>Group 29</title>
    <defs>
        <polygon id="path-1" points="0 0 58 0 58 49 0 49"></polygon>
    </defs>
    <g id="Modules" stroke="none" stroke-width="1" fill="none" fill-rule="evenodd">
        <g id="Homepage" transform="translate(-410.000000, -6259.000000)">
            <g id="Group-29" transform="translate(410.000000, 6259.000000)">
                <text id="Carbon-Neutral" font-family="ESKlarheitKurrent-Book, ES Klarheit Kurrent" font-size="14" font-weight="normal" line-spacing="24" fill="#241E21">
                    <tspan x="66" y="29">Carbon Neutral</tspan>
                </text>
                <g id="Group-9">
                    <polygon id="Fill-1" fill="#FFFFFF" points="10.4794069 20.6646281 7 26.8111362 7 34.1612844 10.4794069 40.0703837 18.5255354 44 37.0280066 41.9469126 40.3685272 40.8411558 43.0868138 44 48.7050412 42.5615634 51 40.0674641 51 30.0637147 42.0840198 26.9647989 38.6288237 22.1164333 29.1110511 19"></polygon>
                    <polygon id="Stroke-2" stroke="#000000" points="10.4794069 20.6646281 7 26.8111362 7 34.1612844 10.4794069 40.0703837 18.5255354 44 37.0280066 41.9469126 40.3685272 40.8411558 43.0868138 44 48.7050412 42.5615634 51 40.0674641 51 30.0637147 42.0840198 26.9647989 38.6288237 22.1164333 29.1110511 19"></polygon>
                    <g id="Group-8">
                        <g id="Group-5">
                            <mask id="mask-2" fill="white">
                                <use xlink:href="#path-1"></use>
                            </mask>
                            <g id="Clip-4"></g>
                            <path d="M43.5727273,34.6334538 C44.2620752,34.2355227 44.9301676,33.9122487 45.7218622,33.9694666 C46.227481,34.0060746 46.468862,34.2470528 46.4567784,34.7501957 C46.4454227,35.2259547 46.1989463,35.596646 45.8900136,35.9236673 C45.0791017,36.7820801 44.2527577,37.6262244 43.4366047,38.4795928 C43.3566782,38.5631857 43.2522934,38.670127 43.2479258,38.7700061 C43.227835,39.2326497 43.2390451,39.6965904 43.2390451,40.1791233 L48.7005439,40.1791233 L48.7005439,38.5790396 L45.8381851,38.5790396 C45.8019343,38.5290279 45.7656835,38.4790163 45.7294326,38.4290047 C46.0498666,38.1589131 46.4030573,37.9182231 46.6836008,37.6123884 C47.2023223,37.0469832 47.7594785,36.4918109 48.1550346,35.8451188 C48.8810701,34.6580993 48.4989079,33.2563326 47.2956427,32.7162935 C45.8697772,32.0763753 44.4586158,32.3146151 43.1265074,33.0675279 C43.0513852,33.1099008 43.0029052,33.3177301 43.0388648,33.4125649 C43.1914386,33.8148197 43.3806999,34.2035268 43.5727273,34.6334538 M21.9223988,27.4019458 C22.3127139,26.5004394 22.7238477,25.5673695 23.1125613,24.6252197 C23.1495549,24.5354294 23.0824251,24.3241411 23.0010427,24.2784532 C22.3205755,23.8959435 21.6575786,23.4510274 20.928777,23.1916012 C18.9868104,22.5003742 16.9823877,22.4456064 14.9903396,22.9556673 C12.3941113,23.6203752 10.5958378,25.2100819 9.66889413,27.716284 C8.93295883,29.7066602 8.9109754,31.7421478 9.48443715,33.7619256 C10.2458499,36.4436729 11.9914215,38.2263639 14.7009154,39.0424037 C16.383594,39.5491498 18.0936427,39.5719216 19.8029634,39.2117515 C20.9472664,38.9706291 22.0311513,38.5643387 22.973527,37.8434219 C23.1655544,37.6967019 23.192051,37.5691506 23.0937807,37.358583 C22.880789,36.9017044 22.6929835,36.4332958 22.4907651,35.9713729 C22.2921863,35.5179534 22.088512,35.0668399 21.8814893,34.6020344 C21.7561401,34.6752503 21.6810179,34.713876 21.611428,34.7604286 C20.5272519,35.4856692 19.3513568,35.9511953 18.0303129,36.0156195 C16.0245799,36.1133367 14.5203893,35.3425524 13.9007769,33.3988729 C13.4349029,31.9374381 13.4407263,30.4457369 13.8103682,28.9590801 C14.0501477,27.9945908 14.5186422,27.1658679 15.3995808,26.6413944 C16.7727444,25.8240574 18.234424,25.8951114 19.6802347,26.3770678 C20.4397549,26.6302967 21.1456996,27.0407668 21.9223988,27.4019458 M24.6448499,30.9977384 C24.6856139,31.5222119 24.6976975,32.0508651 24.7755858,32.5698618 C24.8534741,33.0892909 24.9607707,33.6101612 25.1182943,34.1107099 C25.7793986,36.2104775 27.0759841,37.7831773 29.1307796,38.6818012 C30.9952946,39.4972645 32.9423566,39.619339 34.9303282,39.2672399 C36.5870926,38.973944 38.0361062,38.2749343 39.1788078,37.0305528 C40.7601587,35.3085387 41.2714554,33.2054562 41.2781841,30.9549331 C41.2803362,30.2322867 41.1696911,29.5004163 41.0303656,28.788147 C40.5401789,26.2807918 39.1713829,24.4209935 36.7858169,23.3665698 C34.9045596,22.5349644 32.9240128,22.4644869 30.9412823,22.826819 C28.8537301,23.2081756 27.1583856,24.2636083 25.9950109,26.0638826 C25.0243916,27.5656726 24.6668333,29.2334955 24.6448499,30.9977384 M39.5433541,42.2099988 C38.573026,43.0982456 37.6864096,44.0071024 36.7003582,44.7937406 C34.0546308,46.9041735 31.041154,48.2213385 27.6746322,48.7521535 C25.7300451,49.0588531 23.7882241,49.0829221 21.8452385,48.8131187 C18.2606294,48.3154526 15.0576002,46.9278102 12.2453228,44.6728191 C9.76090424,42.6807134 7.96423212,40.1553426 6.52380802,37.3598801 C4.92789847,34.2626184 3.72186721,31.01561 2.85519603,27.6530128 C2.24257174,25.2762356 1.66896441,22.8834604 1.2287135,20.4709399 C0.815978273,18.2096074 0.53266866,15.9191614 0.319822486,13.6300126 C0.122262802,11.5060319 0.0446656676,9.36749443 0.00521196513,7.23371314 C-0.0272536277,5.47148796 0.0836826133,3.70782152 0.528883434,1.98479853 C0.555962359,1.88016326 0.579110472,1.77437498 0.610848137,1.67118097 C0.983401733,0.46167792 1.42729228,0.115343814 2.67874626,0.0269947474 C4.30420968,-0.087729326 5.89167526,0.180056262 7.47157039,0.496988721 C10.6218976,1.12883588 13.676575,2.08424528 16.6885959,3.18608641 C19.8380496,4.33822742 22.9026268,5.67773187 25.8779601,7.21670631 C29.3554182,9.01568355 32.6722953,11.061404 35.6805309,13.5681827 C38.1653863,15.6388369 40.3613997,17.958108 41.8687932,20.8452344 C42.5713894,22.1907921 43.1142782,23.5980357 43.4756217,25.0720094 C43.5010992,25.1760682 43.531381,25.278974 43.5717082,25.4272793 C43.6944369,25.3801502 43.8021702,25.3436864 43.9059728,25.2982868 C46.707768,24.0726417 49.6124923,23.1832419 52.6303365,22.6535798 C53.8729098,22.4355176 55.1166477,22.258243 56.3832426,22.3000394 C57.6189733,22.340827 57.8577337,22.5584569 57.9635745,23.7727161 C58.0707255,25.0025408 57.930381,26.2227092 57.6922029,27.4211145 C57.3866187,28.9586477 57.0557026,30.4970457 56.617781,32.0014299 C55.7447041,35.0003979 54.5433316,37.859564 52.6029664,40.3627395 C51.009823,42.4178281 48.9381397,43.7063121 46.3302645,44.0254064 C43.9149991,44.32072 41.6887038,43.7592062 39.7087394,42.3250112 C39.6410421,42.2760084 39.5715978,42.2294558 39.5433541,42.2099988" id="Fill-3" fill="#729930" mask="url(#mask-2)"></path>
                        </g>
                        <path d="M29.0241527,31.0161433 C29.0475919,29.8131259 29.1806572,28.639366 29.8353557,27.5895543 C30.6517999,26.2807486 31.8952466,25.8408769 33.3803655,25.9468093 C35.3616402,26.0883408 36.4450884,27.5228241 36.7675605,29.128817 C37.0776579,30.6729799 37.0674669,32.2033068 36.5407381,33.7033673 C35.9917348,35.2669873 34.6960228,36.1435599 32.9763654,36.1411149 C31.2731593,36.1386596 30.0230156,35.2783732 29.4641124,33.6987553 C29.324787,33.3052921 29.2112302,32.8962633 29.1470269,32.4850726 C29.0713224,32.0006661 29.0621505,31.5061707 29.0241527,31.0161433" id="Fill-6" fill="#729930"></path>
                    </g>
                </g>
            </g>
        </g>
    </g>
</svg>