<?xml version="1.0" encoding="UTF-8"?>
<svg width="121px" height="30px" viewBox="0 0 121 30" version="1.1" xmlns="http://www.w3.org/2000/svg" xmlns:xlink="http://www.w3.org/1999/xlink">
    <title>Group 35</title>
    <defs>
        <polygon id="path-1" points="0 0 33 0 33 28 0 28"></polygon>
    </defs>
    <g id="Modules" stroke="none" stroke-width="1" fill="none" fill-rule="evenodd">
        <g id="Homepage" transform="translate(-272.000000, -528.000000)">
            <g id="Group-35" transform="translate(272.000000, 528.000000)">
                <text id="Carbon-Neutral" font-family="ESKlarheitKurrent-Book, ES Klarheit Kurrent" font-size="11" font-weight="normal" line-spacing="24" fill="#FFFFFF">
                    <tspan x="36" y="17">Carbon Neutral</tspan>
                </text>
                <g id="Group-9">
                    <polygon id="Fill-1" fill="#FFFFFF" points="5.97693575 11.9321917 4 15.3742363 4 19.4903192 5.97693575 22.7994149 10.5485997 25 21.0613674 23.8502711 22.9593904 23.2310472 24.5038715 25 27.6960461 24.1944755 29 22.7977799 29 17.1956802 23.9341021 15.4602874 21.9709226 12.7452027 16.5630972 11"></polygon>
                    <polygon id="Stroke-2" stroke="#000000" points="5.97693575 11.9321917 4 15.3742363 4 19.4903192 5.97693575 22.7994149 10.5485997 25 21.0613674 23.8502711 22.9593904 23.2310472 24.5038715 25 27.6960461 24.1944755 29 22.7977799 29 17.1956802 23.9341021 15.4602874 21.9709226 12.7452027 16.5630972 11"></polygon>
                    <g id="Group-8">
                        <g id="Group-5">
                            <mask id="mask-2" fill="white">
                                <use xlink:href="#path-1"></use>
                            </mask>
                            <g id="Clip-4"></g>
                            <path d="M24.7913793,19.7905451 C25.1835945,19.5631558 25.563716,19.3784278 26.014163,19.4111238 C26.3018427,19.4320426 26.4391801,19.5697444 26.4323049,19.8572547 C26.425844,20.129117 26.2856074,20.3409406 26.1098353,20.5278099 C25.6484544,21.0183315 25.1782932,21.5006997 24.7139303,21.9883387 C24.6684549,22.0361061 24.6090635,22.0972154 24.6065785,22.1542892 C24.5951475,22.418657 24.6015256,22.6837659 24.6015256,22.959499 L27.7089302,22.959499 L27.7089302,22.0451655 L26.0803467,22.0451655 C26.0597212,22.0165874 26.0390958,21.9880093 26.0184703,21.9594312 C26.2007862,21.8050932 26.4017395,21.6675561 26.5613591,21.4927933 C26.8564937,21.1697047 27.1734964,20.8524634 27.3985542,20.482925 C27.8116433,19.8046282 27.5942062,19.0036186 26.9095898,18.6950249 C26.0983215,18.3293573 25.2954193,18.4654944 24.5374956,18.8957302 C24.4947536,18.9199433 24.4671702,19.0387029 24.48763,19.0928942 C24.5744392,19.3227541 24.6821223,19.5448725 24.7913793,19.7905451 M12.473089,15.6582548 C12.6951648,15.1431083 12.9290857,14.6099254 13.1502504,14.0715541 C13.1712985,14.0202454 13.1331039,13.8995092 13.0868002,13.8734018 C12.6996378,13.6548249 12.3224154,13.4005871 11.9077524,13.2523435 C10.8028404,12.8573567 9.66239298,12.8260608 8.52898635,13.1175242 C7.05182195,13.4973572 6.02866631,14.4057611 5.50126735,15.8378766 C5.08254554,16.9752344 5.07003773,18.1383701 5.39631769,19.2925289 C5.82953531,20.8249559 6.82270533,21.8436365 8.36431395,22.309945 C9.32170004,22.5995142 10.2946588,22.6125267 11.2672033,22.4067151 C11.9182723,22.2689309 12.5349654,22.036765 13.0711447,21.6248125 C13.1804017,21.5409725 13.1954773,21.4680861 13.1395649,21.3477617 C13.0183799,21.0866882 12.9115251,20.8190262 12.7964698,20.5550702 C12.6834853,20.2959734 12.5676017,20.0381942 12.4498129,19.7725911 C12.3784935,19.8144287 12.3357516,19.8365006 12.2961573,19.8631021 C11.6792985,20.2775253 11.0102547,20.5435402 10.2586263,20.580354 C9.11743338,20.6361924 8.26160079,20.1957442 7.9090627,19.0850702 C7.64399648,18.2499646 7.6473098,17.3975639 7.85762329,16.5480458 C7.99404956,15.996909 8.26060679,15.5233531 8.76183046,15.2236539 C9.54311317,14.7566042 10.3747585,14.7972065 11.1973749,15.0726102 C11.6295157,15.2173124 12.0311739,15.4518667 12.473089,15.6582548 M14.0220698,17.7129934 C14.0452631,18.0126925 14.0521382,18.31478 14.096454,18.6113496 C14.1407697,18.9081662 14.2018178,19.2058064 14.2914433,19.4918342 C14.6675889,20.6917014 15.4053013,21.590387 16.5744091,22.1038864 C17.6352538,22.5698654 18.743065,22.6396223 19.8741523,22.4384228 C20.8167941,22.2708252 21.6412329,21.871391 22.2913906,21.1603159 C23.1911248,20.1763078 23.482035,18.9745464 23.4858634,17.6885332 C23.4870878,17.2755924 23.4241346,16.8573807 23.3448632,16.4503697 C23.0659638,15.0175953 22.2871661,13.9548535 20.9298614,13.3523256 C19.8594908,12.8771225 18.732628,12.8368497 17.6045227,13.0438965 C16.4167775,13.2618146 15.4521849,13.864919 14.7902648,14.8936472 C14.2380159,15.7518129 14.0345776,16.7048546 14.0220698,17.7129934 M22.4988049,24.1199993 C21.9467217,24.6275689 21.4422675,25.1469157 20.8812383,25.5964232 C19.3759106,26.8023849 17.6613463,27.5550506 15.7459114,27.8583734 C14.6395084,28.0336303 13.5346792,28.047384 12.4291874,27.8932107 C10.3896684,27.6088301 8.56725528,26.8158915 6.96716643,25.5273252 C5.55361793,24.3889791 4.53137345,22.94591 3.7118218,21.3485029 C2.8038043,19.5786391 2.1176141,17.7232057 1.62450808,15.8017216 C1.27594599,14.4435632 0.949583198,13.0762631 0.699095612,11.69768 C0.4642635,10.4054899 0.303070099,9.09666367 0.181967966,7.78857864 C0.0695633184,6.57487535 0.0254132247,5.35285396 0.00296542844,4.13355037 C-0.0155063744,3.12656455 0.0476125214,2.11875515 0.300916436,1.13417059 C0.316323411,1.07437901 0.329493889,1.01392856 0.347551526,0.954960552 C0.559521676,0.263815954 0.812080092,0.0659107509 1.52411425,0.01542557 C2.44894689,-0.0501310434 3.35216006,0.102889293 4.25106591,0.283993555 C6.04349345,0.645049074 7.78149958,1.1909973 9.49523559,1.82062081 C11.2871661,2.4789871 13.0308049,3.24441821 14.723667,4.12383218 C16.7022207,5.15181917 18.5894094,6.3208023 20.3009917,7.75324724 C21.7147887,8.93647823 22.9642447,10.261776 23.8218996,11.9115625 C24.2216526,12.6804527 24.5305376,13.4845918 24.7361296,14.3268625 C24.7506254,14.3863247 24.7678547,14.445128 24.7907995,14.5298739 C24.8606279,14.502943 24.9219244,14.4821065 24.9809845,14.4561639 C26.5751094,13.7557952 28.2277973,13.2475668 29.9448466,12.9449028 C30.651828,12.8202958 31.359472,12.718996 32.0801208,12.7428797 C32.783209,12.7661869 32.9190554,12.8905468 32.9792751,13.5844092 C33.0402404,14.2871662 32.9603892,14.9844052 32.8248741,15.6692083 C32.6510072,16.5477987 32.4627273,17.4268832 32.2135651,18.2865314 C31.7168144,20.0002274 31.0332748,21.6340365 29.929274,23.0644226 C29.0228303,24.2387589 27.8441139,24.9750355 26.3603229,25.1573751 C24.9861202,25.3261257 23.7194349,25.0052607 22.5929035,24.1857207 C22.554386,24.1577191 22.5148746,24.1311176 22.4988049,24.1199993" id="Fill-3" fill="#729930" mask="url(#mask-2)"></path>
                        </g>
                        <path d="M16.513742,17.7235104 C16.5270782,17.0360719 16.6027877,16.365352 16.9752886,15.7654596 C17.4398172,15.0175706 18.1472955,14.7662154 18.9922769,14.8267482 C20.1195539,14.9076233 20.7359986,15.727328 20.9194741,16.6450383 C21.0959088,17.5274171 21.0901105,18.4018896 20.79042,19.259067 C20.478056,20.1525642 19.7408405,20.6534628 18.7624148,20.6520656 C17.7933492,20.6506626 17.0820606,20.1590704 16.7640639,19.2564316 C16.6847926,19.0315955 16.6201827,18.7978647 16.5836532,18.5628986 C16.54058,18.2860949 16.5353615,18.0035261 16.513742,17.7235104" id="Fill-6" fill="#729930"></path>
                    </g>
                </g>
            </g>
        </g>
    </g>
</svg>